<?xml version="1.0" encoding="UTF-8"?>
<svg version="1.1" xmlns="http://www.w3.org/2000/svg" width="744" height="552">
<path d="M0 0 C117.81 0 235.62 0 357 0 C357 65.34 357 130.68 357 198 C328.73085938 197.88205078 328.73085938 197.88205078 299.890625 197.76171875 C287.95959285 197.74090216 276.02868566 197.72329091 264.09765625 197.72070312 C257.82958918 197.71917466 251.56152322 197.71683399 245.29345703 197.71313477 C244.11512466 197.71249007 244.11512466 197.71249007 242.91298759 197.71183234 C230.24539389 197.70371829 217.57839096 197.64978881 204.91101125 197.57881906 C191.90211505 197.50696011 178.89380638 197.484609 165.88472915 197.50781661 C157.86266886 197.52057914 149.84262473 197.49514136 141.82089666 197.42018137 C135.660275 197.36675891 129.50154885 197.38236136 123.34087181 197.4231987 C120.82059911 197.42922631 118.30015832 197.41315416 115.78019905 197.37295341 C102.04796124 196.64289075 102.04796124 196.64289075 89.88936615 201.85611916 C86.76186175 204.94343504 84.39470114 208.32605811 82 212 C80.83740816 213.37561035 79.65674931 214.73684743 78.4375 216.0625 C77.91027344 216.67222656 77.38304688 217.28195313 76.83984375 217.91015625 C74.43329844 220.64370559 71.96696804 223.32114006 69.5 226 C66.46109823 229.30026876 63.438439 232.60949347 60.5 236 C57.42211059 239.54332635 54.28384756 243.02891718 51.125 246.5 C50.63580078 247.04140625 50.14660156 247.5828125 49.64257812 248.140625 C48.44937999 249.44657951 47.22727302 250.72601416 46 252 C45.67 252 45.34 252 45 252 C45 234.18 45 216.36 45 198 C30.15 198 15.3 198 0 198 C0 132.66 0 67.32 0 0 Z " fill="#E5E5E5" transform="translate(0,0)"/>
<path d="M0 0 C5.19169324 0.5768548 8.28291154 2.77451018 11.9375 6.4375 C13.23046875 8.453125 13.23046875 8.453125 13.9375 10.4375 C13.6075 11.4275 13.2775 12.4175 12.9375 13.4375 C12.89829185 15.43711564 12.89306653 17.43799364 12.9375 19.4375 C10.9575 19.9325 10.9575 19.9325 8.9375 20.4375 C9.34742188 21.2109375 9.75734375 21.984375 10.1796875 22.78125 C14.60745143 31.34018123 18.45913531 39.57792424 16.9375 49.4375 C15.57697783 53.59215241 13.80840192 57.49066581 11.9375 61.4375 C11.51855469 62.38882813 11.09960938 63.34015625 10.66796875 64.3203125 C8.37070622 69.32323979 6.95280894 71.8211805 1.9375 74.4375 C3.1440625 74.60765625 4.350625 74.7778125 5.59375 74.953125 C7.20844089 75.19720618 8.82301843 75.44203807 10.4375 75.6875 C11.22898437 75.79707031 12.02046875 75.90664062 12.8359375 76.01953125 C18.24299401 76.86161382 23.48023515 78.10670754 27.9375 81.4375 C30.28000745 84.83706393 30.38597861 88.3231779 30.71875 92.3671875 C30.77717575 93.05831635 30.8356015 93.74944519 30.89579773 94.46151733 C31.08546201 96.74453968 31.26200334 99.02834799 31.4375 101.3125 C31.56542007 102.90332763 31.69343258 104.49414783 31.8215332 106.08496094 C33.22102933 123.84746511 34.10783607 141.64068728 34.9375 159.4375 C33.9475 159.7675 32.9575 160.0975 31.9375 160.4375 C25.19920822 171.43511334 27.2021776 186.47615912 29.5 198.5078125 C29.9375 201.4375 29.9375 201.4375 29.9375 208.4375 C57.6575 208.4375 85.3775 208.4375 113.9375 208.4375 C113.9375 253.6475 113.9375 298.8575 113.9375 345.4375 C103.7075 345.4375 93.4775 345.4375 82.9375 345.4375 C82.9375 357.6475 82.9375 369.8575 82.9375 382.4375 C78.6970237 380.31726185 76.21705304 377.7707877 73.125 374.3125 C72.59092529 373.72428467 72.05685059 373.13606934 71.5065918 372.5300293 C68.18453165 368.86098609 64.89962585 365.15966539 61.6640625 361.4140625 C58.77793456 358.11003368 55.8117563 354.87794968 52.85546875 351.63671875 C50.9375 349.4375 50.9375 349.4375 48.9375 346.4375 C45.59136488 345.85062216 45.59136488 345.85062216 41.8125 345.75 C40.53117188 345.68425781 39.24984375 345.61851562 37.9296875 345.55078125 C36.94226563 345.51339844 35.95484375 345.47601563 34.9375 345.4375 C34.94910156 346.1696875 34.96070313 346.901875 34.97265625 347.65625 C35.07218348 359.59951801 34.49022866 371.50973304 33.9375 383.4375 C33.2775 383.4375 32.6175 383.4375 31.9375 383.4375 C31.9375 388.0575 31.9375 392.6775 31.9375 397.4375 C32.9275 397.4375 33.9175 397.4375 34.9375 397.4375 C34.9375 401.3975 34.9375 405.3575 34.9375 409.4375 C71.8975 409.4375 108.8575 409.4375 146.9375 409.4375 C146.9375 410.4275 146.9375 411.4175 146.9375 412.4375 C-57.6625 412.4375 -262.2625 412.4375 -473.0625 412.4375 C-473.0625 411.4475 -473.0625 410.4575 -473.0625 409.4375 C-461.8425 409.1075 -450.6225 408.7775 -439.0625 408.4375 C-441.0425 404.9725 -441.0425 404.9725 -443.0625 401.4375 C-448.47360662 383.29437781 -443.81501122 361.6081714 -437.0625 344.4375 C-435.4125 345.7575 -433.7625 347.0775 -432.0625 348.4375 C-432.413125 347.385625 -432.76375 346.33375 -433.125 345.25 C-434.86723895 338.16489494 -431.88509661 333.77381368 -428.2890625 327.765625 C-424.47638419 321.85964302 -419.71650503 316.68270803 -415.0625 311.4375 C-413.7915882 309.95840075 -412.520742 308.47924513 -411.25 307 C-408.3079017 303.66892236 -405.31812431 300.46598773 -402.0625 297.4375 C-401.4025 297.4375 -400.7425 297.4375 -400.0625 297.4375 C-399.32312633 300.85833551 -398.58799622 304.27998004 -397.859375 307.703125 C-397.3988755 309.86115207 -396.93310959 312.01809799 -396.453125 314.171875 C-395.47842036 318.69096016 -394.74186108 323.22239026 -394.1875 327.8125 C-394.06632812 328.78960937 -393.94515625 329.76671875 -393.8203125 330.7734375 C-394.0625 333.4375 -394.0625 333.4375 -396.0546875 335.7890625 C-396.71726562 336.33304687 -397.37984375 336.87703125 -398.0625 337.4375 C-396.7425 337.1075 -395.4225 336.7775 -394.0625 336.4375 C-394.0625 338.4175 -394.0625 340.3975 -394.0625 342.4375 C-392.93457031 341.92960937 -391.80664062 341.42171875 -390.64453125 340.8984375 C-362.37059119 328.4375 -362.37059119 328.4375 -351.0625 328.4375 C-351.59554975 333.66138757 -352.92259815 337.66387279 -355.0625 342.4375 C-355.53496213 343.8495175 -355.99251558 345.26658383 -356.4375 346.6875 C-357.64253193 350.32770064 -358.96898915 353.89471758 -360.4375 357.4375 C-360.81648438 358.365625 -361.19546875 359.29375 -361.5859375 360.25 C-363.0625 362.4375 -363.0625 362.4375 -365.7265625 363.25 C-366.88285156 363.3428125 -366.88285156 363.3428125 -368.0625 363.4375 C-367.67707031 363.994375 -367.29164063 364.55125 -366.89453125 365.125 C-366.0625 367.4375 -366.0625 367.4375 -367.01171875 369.8125 C-378.41481316 387.03245381 -391.96859071 398.09812326 -410.0625 408.4375 C-299.8425 408.4375 -189.6225 408.4375 -76.0625 408.4375 C-87.4475 404.4775 -87.4475 404.4775 -99.0625 400.4375 C-97.28048117 395.98245294 -96.52382822 394.37438455 -93.0625 391.4375 C-87.09827817 389.44942606 -81.80777607 390.13938957 -76.0625 392.4375 C-75.7325 390.1275 -75.4025 387.8175 -75.0625 385.4375 C-75.7225 385.4375 -76.3825 385.4375 -77.0625 385.4375 C-76.5154243 380.22260256 -75.96397064 375.00819378 -75.40844727 369.79418945 C-75.22006635 368.02022861 -75.03288428 366.24614003 -74.84692383 364.47192383 C-74.57948533 361.92234349 -74.30774469 359.37325297 -74.03515625 356.82421875 C-73.95282242 356.03037277 -73.87048859 355.23652679 -73.78565979 354.41862488 C-73.44607477 351.27545975 -73.06561064 348.44683192 -72.0625 345.4375 C-92.1925 345.4375 -112.3225 345.4375 -133.0625 345.4375 C-133.0625 300.2275 -133.0625 255.0175 -133.0625 208.4375 C-107.6525 208.4375 -82.2425 208.4375 -56.0625 208.4375 C-56.0625 207.4475 -56.0625 206.4575 -56.0625 205.4375 C-57.3825 205.4375 -58.7025 205.4375 -60.0625 205.4375 C-59.99554932 204.88102783 -59.92859863 204.32455566 -59.85961914 203.7512207 C-58.25388286 189.11402915 -59.8073171 177.86554938 -65.40405273 164.24316406 C-66.0625 162.4375 -66.0625 162.4375 -66.0625 160.4375 C-67.3825 160.7675 -68.7025 161.0975 -70.0625 161.4375 C-70.16895825 152.80222336 -69.89142325 144.28021925 -69.22265625 135.671875 C-69.13624374 134.51302795 -69.04983124 133.35418091 -68.96080017 132.16021729 C-68.7789396 129.73326894 -68.59479804 127.30649051 -68.40844727 124.87988281 C-68.12467799 121.18330527 -67.84786489 117.4862573 -67.57226562 113.7890625 C-67.3936321 111.41663629 -67.2146091 109.04423937 -67.03515625 106.671875 C-66.95282242 105.57792419 -66.87048859 104.48397339 -66.78565979 103.35687256 C-66.55651364 100.38260197 -66.31510235 97.40986437 -66.0625 94.4375 C-65.9894162 93.5652478 -65.9163324 92.69299561 -65.84103394 91.79431152 C-65.09523849 83.96360778 -65.09523849 83.96360778 -61.94140625 80.7109375 C-57.49067011 77.69443026 -52.2225434 76.67700249 -47.0625 75.4375 C-45.87527344 75.11394531 -44.68804688 74.79039062 -43.46484375 74.45703125 C-31.5189154 71.62805752 -20.15002236 72.93291487 -8.0625 74.4375 C-9.14583298 71.58195575 -10.30695634 68.94627806 -12.0625 66.4375 C-15.06198436 65.3712123 -15.06198436 65.3712123 -18.375 65.625 C-23.81667214 65.55146389 -27.28566586 64.99255082 -32.0625 62.4375 C-32.3925 64.4175 -32.7225 66.3975 -33.0625 68.4375 C-37.90938192 67.65574485 -42.4391367 66.03905722 -47.0625 64.4375 C-47.04509766 62.93509766 -47.04509766 62.93509766 -47.02734375 61.40234375 C-47.01795602 60.05989772 -47.00885688 58.71744964 -47 57.375 C-46.98259766 55.40853516 -46.98259766 55.40853516 -46.96484375 53.40234375 C-47.05717362 49.65375095 -47.50205985 46.13980158 -48.0625 42.4375 C-48.63191547 34.68038106 -48.91561329 27.85218287 -44.0625 21.4375 C-38.41526412 15.21106044 -29.23549428 11.95162045 -21.0625 10.4375 C-19.14688746 10.37061409 -17.22914408 10.35218281 -15.3125 10.375 C-14.32765625 10.38402344 -13.3428125 10.39304688 -12.328125 10.40234375 C-11.20664062 10.41974609 -11.20664062 10.41974609 -10.0625 10.4375 C-9.7325 9.1175 -9.4025 7.7975 -9.0625 6.4375 C-7.4125 6.4375 -5.7625 6.4375 -4.0625 6.4375 C-4.0934375 5.2309375 -4.0934375 5.2309375 -4.125 4 C-4.03400345 0.26914164 -3.75423022 0.5363186 0 0 Z M-46.0625 345.4375 C-49.46922312 358.98522424 -49.46922312 358.98522424 -52.3125 372.625 C-52.48523438 373.51251953 -52.65796875 374.40003906 -52.8359375 375.31445312 C-53.60812761 379.39909367 -54.30473362 383.25897 -54.0625 387.4375 C-54.7225 387.1075 -55.3825 386.7775 -56.0625 386.4375 C-58.06210012 386.397508 -60.06297242 386.39403201 -62.0625 386.4375 C-62.59404742 388.03814843 -63.11238353 389.64318874 -63.625 391.25 C-63.91503906 392.14332031 -64.20507812 393.03664063 -64.50390625 393.95703125 C-65.31229556 396.54965139 -65.31229556 396.54965139 -64.0625 399.4375 C-64.7225 402.7375 -65.3825 406.0375 -66.0625 409.4375 C-43.9525 409.4375 -21.8425 409.4375 0.9375 409.4375 C2.2575 406.7975 3.5775 404.1575 4.9375 401.4375 C9.198431 397.5525335 14.41419034 397.80572064 19.9375 397.4375 C19.6075 392.8175 19.2775 388.1975 18.9375 383.4375 C16.6275 383.4375 14.3175 383.4375 11.9375 383.4375 C11.8873877 382.78378418 11.83727539 382.13006836 11.78564453 381.45654297 C11.54925585 378.40814749 11.3058916 375.36034404 11.0625 372.3125 C10.98386719 371.28511719 10.90523437 370.25773437 10.82421875 369.19921875 C10.17708436 361.18470823 9.08021378 353.43649644 7.9375 345.4375 C-9.8825 345.4375 -27.7025 345.4375 -46.0625 345.4375 Z " fill="#FE5555" transform="translate(597.0625,139.5625)"/>
<path d="M0 0 C5.19169324 0.5768548 8.28291154 2.77451018 11.9375 6.4375 C13.23046875 8.453125 13.23046875 8.453125 13.9375 10.4375 C13.6075 11.4275 13.2775 12.4175 12.9375 13.4375 C12.89829185 15.43711564 12.89306653 17.43799364 12.9375 19.4375 C11.6175 19.7675 10.2975 20.0975 8.9375 20.4375 C9.34742188 21.2109375 9.75734375 21.984375 10.1796875 22.78125 C14.60745143 31.34018123 18.45913531 39.57792424 16.9375 49.4375 C15.57697783 53.59215241 13.80840192 57.49066581 11.9375 61.4375 C11.51855469 62.38882813 11.09960938 63.34015625 10.66796875 64.3203125 C8.37070622 69.32323979 6.95280894 71.8211805 1.9375 74.4375 C3.1440625 74.60765625 4.350625 74.7778125 5.59375 74.953125 C7.20844089 75.19720618 8.82301843 75.44203807 10.4375 75.6875 C11.62472656 75.85185547 11.62472656 75.85185547 12.8359375 76.01953125 C18.24299401 76.86161382 23.48023515 78.10670754 27.9375 81.4375 C30.28000745 84.83706393 30.38597861 88.3231779 30.71875 92.3671875 C30.80638863 93.40388077 30.80638863 93.40388077 30.89579773 94.46151733 C31.08546201 96.74453968 31.26200334 99.02834799 31.4375 101.3125 C31.56542007 102.90332763 31.69343258 104.49414783 31.8215332 106.08496094 C33.22102933 123.84746511 34.10783607 141.64068728 34.9375 159.4375 C28.56470261 157.54240275 22.2346384 155.57040172 15.9375 153.4375 C13.04846069 161.03093158 10.63695408 168.66409255 8.5 176.5 C8.2014209 177.57894531 7.9028418 178.65789062 7.59521484 179.76953125 C6.4386767 183.95214805 5.29265888 188.13759652 4.14892578 192.32373047 C3.67187741 194.06954465 3.19383954 195.81508888 2.71459961 197.56030273 C2.28886971 199.11228028 1.86635886 200.66514547 1.44750977 202.21899414 C0.04911533 207.32588467 0.04911533 207.32588467 -1.0625 208.4375 C-3.51080426 208.52593793 -5.93070599 208.55278752 -8.37890625 208.53515625 C-9.10996078 208.5337413 -9.84101532 208.53232635 -10.59422302 208.53086853 C-12.93785632 208.52525408 -15.28139539 208.51269922 -17.625 208.5 C-19.21028508 208.49498686 -20.79557166 208.49042363 -22.38085938 208.48632812 C-26.2747761 208.47527997 -30.16862205 208.45800572 -34.0625 208.4375 C-37.29810074 199.10888488 -39.93364655 189.70003243 -42.41796875 180.1484375 C-44.13689559 173.6305158 -46.06508434 167.25561037 -48.31054688 160.8984375 C-49.0625 158.4375 -49.0625 158.4375 -49.0625 155.4375 C-55.9925 157.4175 -62.9225 159.3975 -70.0625 161.4375 C-70.1420685 152.7937704 -69.89198211 144.28741285 -69.22265625 135.671875 C-69.09303749 133.93360443 -69.09303749 133.93360443 -68.96080017 132.16021729 C-68.7789396 129.73326894 -68.59479804 127.30649051 -68.40844727 124.87988281 C-68.12467799 121.18330527 -67.84786489 117.4862573 -67.57226562 113.7890625 C-67.3936321 111.41663629 -67.2146091 109.04423937 -67.03515625 106.671875 C-66.95282242 105.57792419 -66.87048859 104.48397339 -66.78565979 103.35687256 C-66.55651364 100.38260197 -66.31510235 97.40986437 -66.0625 94.4375 C-65.9894162 93.5652478 -65.9163324 92.69299561 -65.84103394 91.79431152 C-65.09523849 83.96360778 -65.09523849 83.96360778 -61.94140625 80.7109375 C-57.49067011 77.69443026 -52.2225434 76.67700249 -47.0625 75.4375 C-45.87527344 75.11394531 -44.68804688 74.79039062 -43.46484375 74.45703125 C-31.5189154 71.62805752 -20.15002236 72.93291487 -8.0625 74.4375 C-9.14583298 71.58195575 -10.30695634 68.94627806 -12.0625 66.4375 C-15.06198436 65.3712123 -15.06198436 65.3712123 -18.375 65.625 C-23.81667214 65.55146389 -27.28566586 64.99255082 -32.0625 62.4375 C-32.3925 64.4175 -32.7225 66.3975 -33.0625 68.4375 C-37.90938192 67.65574485 -42.4391367 66.03905722 -47.0625 64.4375 C-47.05089844 63.43589844 -47.03929687 62.43429688 -47.02734375 61.40234375 C-47.01795602 60.05989772 -47.00885688 58.71744964 -47 57.375 C-46.98839844 56.06402344 -46.97679687 54.75304687 -46.96484375 53.40234375 C-47.05717362 49.65375095 -47.50205985 46.13980158 -48.0625 42.4375 C-48.63191547 34.68038106 -48.91561329 27.85218287 -44.0625 21.4375 C-38.41526412 15.21106044 -29.23549428 11.95162045 -21.0625 10.4375 C-19.14688746 10.37061409 -17.22914408 10.35218281 -15.3125 10.375 C-14.32765625 10.38402344 -13.3428125 10.39304688 -12.328125 10.40234375 C-11.20664062 10.41974609 -11.20664062 10.41974609 -10.0625 10.4375 C-9.7325 9.1175 -9.4025 7.7975 -9.0625 6.4375 C-7.4125 6.4375 -5.7625 6.4375 -4.0625 6.4375 C-4.083125 5.633125 -4.10375 4.82875 -4.125 4 C-4.03400345 0.26914164 -3.75423022 0.5363186 0 0 Z " fill="#3F3D56" transform="translate(597.0625,139.5625)"/>
<path d="M0 0 C0.73937367 3.42083551 1.47450378 6.84248004 2.203125 10.265625 C2.6636245 12.42365207 3.12939041 14.58059799 3.609375 16.734375 C4.58407964 21.25346016 5.32063892 25.78489026 5.875 30.375 C5.99617188 31.35210937 6.11734375 32.32921875 6.2421875 33.3359375 C6 36 6 36 4.0078125 38.3515625 C3.34523438 38.89554687 2.68265625 39.43953125 2 40 C3.32 39.67 4.64 39.34 6 39 C6 40.98 6 42.96 6 45 C7.12792969 44.49210937 8.25585938 43.98421875 9.41796875 43.4609375 C37.69190881 31 37.69190881 31 49 31 C48.46695025 36.22388757 47.13990185 40.22637279 45 45 C44.52753787 46.4120175 44.06998442 47.82908383 43.625 49.25 C42.41996807 52.89020064 41.09351085 56.45721758 39.625 60 C39.05652344 61.3921875 39.05652344 61.3921875 38.4765625 62.8125 C37 65 37 65 34.3359375 65.8125 C33.56507813 65.874375 32.79421875 65.93625 32 66 C32.38542969 66.556875 32.77085937 67.11375 33.16796875 67.6875 C34 70 34 70 33.05078125 72.375 C21.64768684 89.59495381 8.09390929 100.66062326 -10 111 C265.715 111.495 265.715 111.495 547 112 C547 112.99 547 113.98 547 115 C342.4 115 137.8 115 -73 115 C-73 114.01 -73 113.02 -73 112 C-61.78 111.67 -50.56 111.34 -39 111 C-40.98 107.535 -40.98 107.535 -43 104 C-48.41110662 85.85687781 -43.75251122 64.1706714 -37 47 C-34.525 48.98 -34.525 48.98 -32 51 C-32.5259375 49.4221875 -32.5259375 49.4221875 -33.0625 47.8125 C-34.80473895 40.72739494 -31.82259661 36.33631368 -28.2265625 30.328125 C-24.41388419 24.42214302 -19.65400503 19.24520803 -15 14 C-13.7290882 12.52090075 -12.458242 11.04174513 -11.1875 9.5625 C-2.74164013 0 -2.74164013 0 0 0 Z " fill="#F1F1F1" transform="translate(197,437)"/>
<path d="M0 0 C5.19169324 0.5768548 8.28291154 2.77451018 11.9375 6.4375 C13.23046875 8.453125 13.23046875 8.453125 13.9375 10.4375 C13.6075 11.4275 13.2775 12.4175 12.9375 13.4375 C12.89829185 15.43711564 12.89306653 17.43799364 12.9375 19.4375 C11.6175 19.7675 10.2975 20.0975 8.9375 20.4375 C9.34742188 21.2109375 9.75734375 21.984375 10.1796875 22.78125 C14.60745143 31.34018123 18.45913531 39.57792424 16.9375 49.4375 C15.57672364 53.59292864 13.79568488 57.48435321 11.9375 61.4375 C11.56496094 62.365625 11.19242188 63.29375 10.80859375 64.25 C8.32604219 70.06280365 5.82317745 72.8207316 0.12109375 75.59765625 C-1.92755776 76.38559914 -3.92080288 76.96642376 -6.0625 77.4375 C-6.48595703 76.26380859 -6.48595703 76.26380859 -6.91796875 75.06640625 C-8.35906136 71.74893499 -9.68628043 69.17699054 -12.0625 66.4375 C-15.47115527 65.48919462 -18.38401396 65.43630564 -21.9140625 65.47265625 C-26.02216378 65.42678415 -28.48748533 64.34971715 -32.0625 62.4375 C-32.5575 65.4075 -32.5575 65.4075 -33.0625 68.4375 C-37.90938192 67.65574485 -42.4391367 66.03905722 -47.0625 64.4375 C-47.04509766 62.93509766 -47.04509766 62.93509766 -47.02734375 61.40234375 C-47.01795602 60.05989772 -47.00885688 58.71744964 -47 57.375 C-46.98839844 56.06402344 -46.97679687 54.75304687 -46.96484375 53.40234375 C-47.05717362 49.65375095 -47.50205985 46.13980158 -48.0625 42.4375 C-48.63191547 34.68038106 -48.91561329 27.85218287 -44.0625 21.4375 C-38.41526412 15.21106044 -29.23549428 11.95162045 -21.0625 10.4375 C-19.14688746 10.37061409 -17.22914408 10.35218281 -15.3125 10.375 C-14.32765625 10.38402344 -13.3428125 10.39304688 -12.328125 10.40234375 C-11.20664062 10.41974609 -11.20664062 10.41974609 -10.0625 10.4375 C-9.7325 9.1175 -9.4025 7.7975 -9.0625 6.4375 C-7.4125 6.4375 -5.7625 6.4375 -4.0625 6.4375 C-4.083125 5.633125 -4.10375 4.82875 -4.125 4 C-4.03400345 0.26914164 -3.75423022 0.5363186 0 0 Z " fill="#2F2E41" transform="translate(597.0625,139.5625)"/>
<path d="M0 0 C8.415 2.475 8.415 2.475 17 5 C15.219423 13.52133279 15.219423 13.52133279 13.9453125 16.30078125 C12.69353199 19.87508014 12.70300639 23.2610709 12.75 27 C12.75386719 27.74822021 12.75773438 28.49644043 12.76171875 29.26733398 C12.84877054 34.94081335 13.48450071 40.39550715 14.5625 45.97265625 C15 49 15 49 15 57 C9.72 57 4.44 57 -1 57 C-1.0825 58.711875 -1.165 60.42375 -1.25 62.1875 C-1.67238419 66.94391325 -2.34599147 69.67817407 -6 73 C-8.85324437 74.42662219 -10.83454549 74.31033868 -14 74 C-16.8125 72.5625 -16.8125 72.5625 -19 70 C-19.90477049 66.97484713 -20.3543221 64.14460863 -20 61 C-19.01 59.68 -18.02 58.36 -17 57 C-27.23 57 -37.46 57 -48 57 C-47.01 58.65 -46.02 60.3 -45 62 C-44.49599283 66.03205738 -44.64742617 68.27952304 -46.4375 71.9375 C-49.67308407 74.5417506 -51.72606948 74.80027961 -55.80859375 74.53125 C-58.68734564 73.83337075 -60.43580824 72.49210337 -62.13671875 70.06640625 C-63.87345111 65.90925051 -63.91279338 61.45546527 -64 57 C-66.31 57 -68.62 57 -71 57 C-71 55.68 -71 54.36 -71 53 C-72.32 53 -73.64 53 -75 53 C-74.93304932 52.44352783 -74.86609863 51.88705566 -74.79711914 51.3137207 C-73.19494612 36.7090103 -74.72181204 25.499348 -80.34155273 11.91918945 C-81 10 -81 10 -81 7 C-78.73050898 6.32844651 -76.4596039 5.6626037 -74.1875 5 C-72.29064453 4.443125 -72.29064453 4.443125 -70.35546875 3.875 C-67 3 -67 3 -64 3 C-58.2476069 20.39193908 -52.59637407 38.01812963 -49 56 C-38.11 55.67 -27.22 55.34 -16 55 C-14.96875 51.101875 -13.9375 47.20375 -12.875 43.1875 C-10.06466657 32.66691704 -6.98824594 22.27250172 -3.61816406 11.91943359 C-2.34505087 7.96634675 -1.17530964 3.98299377 0 0 Z " fill="#9F5F68" transform="translate(612,292)"/>
<path d="M0 0 C79.2 0 158.4 0 240 0 C240 3.63 240 7.26 240 11 C160.8 11 81.6 11 0 11 C0 7.37 0 3.74 0 0 Z " fill="#FEFEFE" transform="translate(58,93)"/>
<path d="M0 0 C79.2 0 158.4 0 240 0 C240 3.63 240 7.26 240 11 C160.8 11 81.6 11 0 11 C0 7.37 0 3.74 0 0 Z " fill="#FEFEFE" transform="translate(58,58)"/>
<path d="M0 0 C78.54 0 157.08 0 238 0 C238 3.3 238 6.6 238 10 C159.46 10 80.92 10 0 10 C0 6.7 0 3.4 0 0 Z " fill="#FFFFFF" transform="translate(59,129)"/>
<path d="M0 0 C204.6 0 409.2 0 620 0 C620 0.99 620 1.98 620 3 C415.4 3 210.8 3 0 3 C0 2.01 0 1.02 0 0 Z " fill="#CACACA" transform="translate(124,549)"/>
<path d="M0 0 C8.25 0 16.5 0 25 0 C26.02884457 3.08653372 26.0045531 3.96241027 25.37915039 7.01245117 C25.21890884 7.81305466 25.0586673 8.61365814 24.89356995 9.43852234 C24.71341843 10.29798965 24.53326691 11.15745697 24.34765625 12.04296875 C24.07918129 13.36836418 24.07918129 13.36836418 23.80528259 14.72053528 C23.23155223 17.54438076 22.64716446 20.36590022 22.0625 23.1875 C21.67182256 25.10076795 21.28183989 27.0141779 20.89257812 28.92773438 C19.93644175 33.62017589 18.97074114 38.31055901 18 43 C15.36 42.67 12.72 42.34 10 42 C9.63631108 43.60203467 9.28438048 45.20674203 8.9375 46.8125 C8.74027344 47.70582031 8.54304687 48.59914063 8.33984375 49.51953125 C7.79650537 52.12630779 7.79650537 52.12630779 9 55 C8.44140625 57.48046875 8.44140625 57.48046875 7.5625 60.1875 C7.13130859 61.53908203 7.13130859 61.53908203 6.69140625 62.91796875 C6.34916016 63.94857422 6.34916016 63.94857422 6 65 C1.05459562 65.19618133 -2.71881856 64.69773664 -7.37109375 63.03125 C-8.52158203 62.62519531 -9.67207031 62.21914063 -10.85742188 61.80078125 C-12.03884766 61.37152344 -13.22027344 60.94226563 -14.4375 60.5 C-15.64599609 60.07074219 -16.85449219 59.64148438 -18.09960938 59.19921875 C-21.07004229 58.14254301 -24.03648978 57.07590587 -27 56 C-25.54668245 52.09864977 -24.20975254 49.7234264 -21 47 C-15.03577817 45.01192606 -9.74527607 45.70188957 -4 48 C-3.67 45.69 -3.34 43.38 -3 41 C-3.66 41 -4.32 41 -5 41 C-4.45225715 35.80348476 -3.90081083 30.60738085 -3.34594727 25.41162109 C-3.15775657 23.64447642 -2.97057363 21.87722411 -2.78442383 20.10986328 C-2.51649379 17.56774306 -2.24492748 15.02603347 -1.97265625 12.484375 C-1.89032242 11.69569031 -1.80798859 10.90700562 -1.72315979 10.09442139 C-1.34847195 6.62670182 -0.84809209 3.39236835 0 0 Z " fill="#312E41" transform="translate(525,484)"/>
<path d="M0 0 C4.31248609 -0.02886537 8.62494762 -0.04675255 12.9375 -0.0625 C14.78504883 -0.07506836 14.78504883 -0.07506836 16.66992188 -0.08789062 C17.83974609 -0.09111328 19.00957031 -0.09433594 20.21484375 -0.09765625 C21.84087524 -0.10551147 21.84087524 -0.10551147 23.49975586 -0.11352539 C26 0 26 0 27 1 C27.72228836 13.59755881 26.58329654 26.41258483 26 39 C25.34 39 24.68 39 24 39 C24 43.62 24 48.24 24 53 C24.99 53 25.98 53 27 53 C27 56.96 27 60.92 27 65 C15.78 65 4.56 65 -7 65 C-5.8546977 59.27348852 -4.87318315 58.05762044 -1 54 C2.01490557 52.99503148 4.04181692 52.89664697 7.1875 52.9375 C8.775625 52.958125 10.36375 52.97875 12 53 C11.67 48.38 11.34 43.76 11 39 C8.69 39 6.38 39 4 39 C2.7758275 31.0168325 1.73469628 23.02981291 0.875 15 C0.78750488 14.19973389 0.70000977 13.39946777 0.60986328 12.57495117 C0.52978027 11.80771729 0.44969727 11.0404834 0.3671875 10.25 C0.29612793 9.57453125 0.22506836 8.8990625 0.15185547 8.203125 C-0.03687923 5.4649547 -0.02302765 2.74371972 0 0 Z " fill="#312E41" transform="translate(605,484)"/>
<path d="M0 0 C54.45 0 108.9 0 165 0 C165 2.64 165 5.28 165 8 C110.55 8 56.1 8 0 8 C0 5.36 0 2.72 0 0 Z " fill="#FFF2F2" transform="translate(505,437)"/>
<path d="M0 0 C54.45 0 108.9 0 165 0 C165 2.64 165 5.28 165 8 C110.55 8 56.1 8 0 8 C0 5.36 0 2.72 0 0 Z " fill="#FFF2F2" transform="translate(505,388)"/>
<path d="M0 0 C4.2737215 12.92128383 8.1737926 25.88094233 11.51391602 39.07763672 C13.33881028 46.12539045 15.74916325 52.4983265 19 59 C19.37103568 62.93297819 19.31089131 65.36470037 17.5625 68.9375 C14.32691593 71.5417506 12.27393052 71.80027961 8.19140625 71.53125 C5.31265436 70.83337075 3.56419176 69.49210337 1.86328125 67.06640625 C0.12654889 62.90925051 0.08720662 58.45546527 0 54 C-2.31 54 -4.62 54 -7 54 C-7 52.68 -7 51.36 -7 50 C-8.32 50 -9.64 50 -11 50 C-10.93304932 49.44352783 -10.86609863 48.88705566 -10.79711914 48.3137207 C-9.19494612 33.7090103 -10.72181204 22.499348 -16.34155273 8.91918945 C-17 7 -17 7 -17 4 C-14.73050898 3.32844651 -12.4596039 2.6626037 -10.1875 2 C-8.92292969 1.62875 -7.65835938 1.2575 -6.35546875 0.875 C-3 0 -3 0 0 0 Z " fill="#9E6069" transform="translate(548,295)"/>
<path d="M0 0 C54.45 0 108.9 0 165 0 C165 2.31 165 4.62 165 7 C110.55 7 56.1 7 0 7 C0 4.69 0 2.38 0 0 Z " fill="#FFFEFE" transform="translate(505,413)"/>
<path d="M0 0 C1.051875 0.66 2.10375 1.32 3.1875 2 C6.26623937 3.7771585 8.38596328 4.43806506 12 4 C11.67 3.34 11.34 2.68 11 2 C14.91576018 2.70731609 18.6403127 3.75227664 22.4375 4.9375 C23.52933594 5.27652344 24.62117187 5.61554688 25.74609375 5.96484375 C27.35677734 6.47724609 27.35677734 6.47724609 29 7 C30.10472656 7.29003906 31.20945312 7.58007812 32.34765625 7.87890625 C35 9 35 9 36.0703125 10.8828125 C35.97247339 13.82885675 34.89735737 14.76802517 32.875 16.875 C32.23046875 17.57367188 31.5859375 18.27234375 30.921875 18.9921875 C29.77321654 20.19220874 28.61888094 21.38689359 27.453125 22.5703125 C23.68104479 26.6308459 23.27644926 29.65531428 23 35 C8.93906352 35.77163676 8.93906352 35.77163676 3.72265625 32.6484375 C-1.33921035 27.80465585 -4.29843002 20.76844062 -4.625 13.8125 C-4.31059958 8.70762995 -2.41018284 4.45453435 0 0 Z " fill="#9D6069" transform="translate(562,170)"/>
<path d="M0 0 C-0.64899463 4.16230209 -1.48195083 8.22503259 -2.5 12.3125 C-2.7578125 13.36050781 -3.015625 14.40851563 -3.28125 15.48828125 C-4 18 -4 18 -5 19 C-7.44830426 19.08843793 -9.86820599 19.11528752 -12.31640625 19.09765625 C-13.04746078 19.0962413 -13.77851532 19.09482635 -14.53172302 19.09336853 C-16.87535632 19.08775408 -19.21889539 19.07519922 -21.5625 19.0625 C-23.14778508 19.05748686 -24.73307166 19.05292363 -26.31835938 19.04882812 C-30.2122761 19.03777997 -34.10612205 19.02050572 -38 19 C-39.60355101 15.49223216 -40.22036864 12.85645121 -40 9 C-38.95827637 8.75092896 -38.95827637 8.75092896 -37.89550781 8.49682617 C-34.68018801 7.72767856 -31.46509346 6.95759317 -28.25 6.1875 C-26.61224609 5.79594727 -26.61224609 5.79594727 -24.94140625 5.39648438 C-18.42933211 3.83589856 -11.93286025 2.23076368 -5.45214844 0.54418945 C-3 0 -3 0 0 0 Z " fill="#302E41" transform="translate(601,329)"/>
<path d="M0 0 C3.0161288 1.23489144 6.04655805 2.2923625 9.1484375 3.2890625 C8.1584375 7.2490625 7.1684375 11.2090625 6.1484375 15.2890625 C1.20303312 15.48524383 -2.57038106 14.98679914 -7.22265625 13.3203125 C-8.94838867 12.71123047 -8.94838867 12.71123047 -10.70898438 12.08984375 C-11.89041016 11.66058594 -13.07183594 11.23132813 -14.2890625 10.7890625 C-15.49755859 10.35980469 -16.70605469 9.93054688 -17.95117188 9.48828125 C-20.92160479 8.43160551 -23.88805228 7.36496837 -26.8515625 6.2890625 C-25.39824495 2.38771227 -24.06131504 0.0124889 -20.8515625 -2.7109375 C-13.04209009 -5.31409497 -7.3387622 -3.0385674 0 0 Z " fill="#2F2E40" transform="translate(524.8515625,533.7109375)"/>
<path d="M0 0 C1.11826172 0.00322266 2.23652344 0.00644531 3.38867188 0.00976562 C4.55591797 0.01814453 5.72316406 0.02652344 6.92578125 0.03515625 C8.10462891 0.03966797 9.28347656 0.04417969 10.49804688 0.04882812 C13.41147992 0.0606234 16.32488692 0.07855898 19.23828125 0.09765625 C19.23828125 4.05765625 19.23828125 8.01765625 19.23828125 12.09765625 C8.01828125 12.09765625 -3.20171875 12.09765625 -14.76171875 12.09765625 C-13.61641645 6.37114477 -12.6349019 5.15527669 -8.76171875 1.09765625 C-5.58384334 0.03836445 -3.33582932 -0.01693314 0 0 Z " fill="#2F2E41" transform="translate(612.76171875,536.90234375)"/>
<path d="M0 0 C3.55247432 0.87379409 4.94828114 2.4927342 6.9375 5.4765625 C7.9044424 9.72084065 7.41291541 12.61715772 5.3125 16.4140625 C2.40358332 18.94022698 0.77034932 19.39834109 -3.0625 19.4765625 C-6.55468185 18.50200012 -8.77095346 17.27805883 -11.0625 14.4765625 C-11.75228598 11.40701489 -11.62481106 8.56386647 -11.0625 5.4765625 C-8.0958762 0.93391981 -5.25883 -0.3784764 0 0 Z " fill="#E6E6E6" transform="translate(48.0625,266.5234375)"/>
<path d="M0 0 C0.33 0 0.66 0 1 0 C2.17371774 11.32694596 3.25882662 22.63534148 4 34 C-0.95 34 -5.9 34 -11 34 C-9.5203376 26.62492878 -7.34699552 19.62072735 -4.9375 12.5 C-4.57333984 11.40429688 -4.20917969 10.30859375 -3.83398438 9.1796875 C-1.13368056 1.13368056 -1.13368056 1.13368056 0 0 Z " fill="#312E41" transform="translate(623,314)"/>
<path d="M0 0 C4.29 0 8.58 0 13 0 C13 4.95 13 9.9 13 15 C9.04 15 5.08 15 1 15 C0.15318867 9.91913204 -0.09038099 5.15171623 0 0 Z " fill="#9E6069" transform="translate(616,522)"/>
<path d="M0 0 C4.29 0 8.58 0 13 0 C12.53199289 4.05606165 12.12046792 7.46588679 10 11 C8.741875 10.87625 7.48375 10.7525 6.1875 10.625 C5.47980469 10.55539062 4.77210938 10.48578125 4.04296875 10.4140625 C2 10 2 10 -1 8 C-0.67 5.36 -0.34 2.72 0 0 Z " fill="#9B6069" transform="translate(522,525)"/>
<path d="M0 0 C2.11340464 2.11340464 2.58435125 3.24985646 3.5078125 6.02734375 C3.77207031 6.81947266 4.03632812 7.61160156 4.30859375 8.42773438 C4.57800781 9.25595703 4.84742188 10.08417969 5.125 10.9375 C5.40214844 11.76185547 5.67929687 12.58621094 5.96484375 13.43554688 C8 19.60618073 8 19.60618073 8 23 C6.02 23 4.04 23 2 23 C2 22.01 2 21.02 2 20 C0.68 20 -0.64 20 -2 20 C-1.85780436 17.79142945 -1.71108153 15.58315013 -1.5625 13.375 C-1.48128906 12.14523437 -1.40007813 10.91546875 -1.31640625 9.6484375 C-1.03336056 6.38467612 -0.58961047 3.22056141 0 0 Z " fill="#403C54" transform="translate(539,325)"/>
<path d="M0 0 C0.33 0 0.66 0 1 0 C1 2.97 1 5.94 1 9 C-0.32 9.33 -1.64 9.66 -3 10 C-2.69201674 8.51988629 -2.378482 7.04092675 -2.0625 5.5625 C-1.88847656 4.73878906 -1.71445312 3.91507812 -1.53515625 3.06640625 C-1 1 -1 1 0 0 Z " fill="#463F56" transform="translate(623,314)"/>
<path d="M0 0 C1.65 0.33 3.3 0.66 5 1 C5 1.99 5 2.98 5 4 C3.02 4 1.04 4 -1 4 C-0.67 2.68 -0.34 1.36 0 0 Z " fill="#312F42" transform="translate(542,344)"/>
</svg>
