<?xml version="1.0" encoding="utf-8"?>
<!-- Generator: Adobe Illustrator 27.3.1, SVG Export Plug-In . SVG Version: 6.00 Build 0)  -->
<svg version="1.1" id="Layer_1" xmlns="http://www.w3.org/2000/svg" xmlns:xlink="http://www.w3.org/1999/xlink" x="0px" y="0px"
	 viewBox="0 0 471.6 535.3" style="enable-background:new 0 0 471.6 535.3;" xml:space="preserve">
<style type="text/css">
	.st0{fill:#F2F2F2;}
	.st1{fill:#2F2E41;}
	.st2{fill:#FFB6B6;}
	.st3{fill:#E6E6E6;}
	.st4{fill:#3F3D56;}
	.st5{fill:#FF6584;}
	.st6{fill:#FF5555;}
	.st7{fill:#CCCCCC;}
	.st8{fill:#FFFFFF;}
</style>
<path class="st0" d="M303.2,396.3c2.9,1.5,6.4,0.4,7.9-2.4c0.8-1.5,0.9-3.3,0.3-4.9c0.1-0.6,0.2-1,0.3-1.6
	c6.3-5.9,16.3-5.6,22.2,0.8c2.9,3.1,4.4,7.3,4.2,11.5c-0.7,17.6,0.1,36.7-11.6,50.9c53.5-43.7,77.9-118.2,61.6-185.2
	c-8-11.2-11.8-26-8.2-39.5c4.5,4.4,13.3,3.2,12-4.4c-0.7-3-1.5-6-2.2-9c30.8-12,38.9,33.8,2.4,52.5c3,12.7,4.6,25.8,4.8,38.8
	c4.1-11.8,11-22.4,20-31.1c8.8-7.9,20.3-12.5,31.1-17.8c13.1-6.4,27.6,6.3,22.5,20c-8.7-1.1-14.9,9.3-7,14.9
	c-13.9,23.3-40.5,38.2-67.6,38.4c-2.7,26.6-11.1,52.4-24.6,75.5c17.3-26.3,50.8-18.7,77.2-19.8c5-0.6,9.6,2.9,10.2,7.9
	c0.3,2.3-0.3,4.6-1.6,6.4c-3.5-0.2-7-0.1-10.4,0.4c-4.3,0.6-7.3,4.7-6.7,9c0.3,2.4,1.7,4.4,3.8,5.7c-23.2,21.3-59.2,25.8-87.4,12.3
	c-8.3,10.5-17.8,20.1-28.1,28.7l-42-20c0.1-0.5,0.2-1.1,0.3-1.6c3.8,2.1,7.8,3.7,11.9,4.8C294.1,420.4,289.1,410.4,303.2,396.3
	L303.2,396.3z"/>
<path class="st0" d="M229.1,355.9c-2.1,2.5-5.8,2.8-8.2,0.8c-1.3-1.1-2.1-2.7-2.1-4.5c-0.3-0.5-0.6-0.9-0.9-1.4
	c-8.1-3.1-17.2,1-20.3,9.1c-1.5,4-1.4,8.4,0.5,12.3c7.3,16.1,13.7,34,29.9,42.8c-66.1-20.3-116.8-80.1-126.9-148.3
	c3.2-13.4,1.1-28.5-7.3-39.6c-2.5,5.8-11.1,8-12.7,0.4c-0.5-3.1-0.9-6.1-1.4-9.2c-33.1,0.5-23.3,46,17.6,49.5
	c2.1,12.9,5.5,25.6,10.2,37.8c-8.3-9.4-18.6-16.6-30.3-21.2c-11.1-4-23.5-3.9-35.5-4.8c-14.6-1-23.2,16.3-13.3,27
	c7.7-4.3,17.3,3,12.1,11.2c21.7,16.4,52,20.1,77.1,10.1c12.6,23.6,30.1,44.3,51.3,60.7c-25.9-17.8-54.1,1.8-79,10.7
	c-4.9,1.3-7.8,6.3-6.4,11.2c0.6,2.2,2,4.1,3.9,5.3c3.1-1.5,6.4-2.7,9.8-3.5c4.3-1,8.6,1.6,9.6,5.8c0.6,2.3,0.1,4.8-1.4,6.7
	c29.5,10.9,64.5,1.6,85.6-21.6c11.7,6.6,24,11.9,36.8,16l31.3-34.3c-0.3-0.5-0.6-0.9-0.8-1.4c-2.7,3.4-5.8,6.4-9.2,9
	C246.6,374.9,247.5,363.7,229.1,355.9L229.1,355.9z"/>
<path class="st0" d="M237.1,210.8c3.2-0.3,5.6-3.2,5.2-6.4c-0.2-1.7-1.1-3.3-2.5-4.2c-0.2-0.6-0.4-1-0.6-1.5
	c2-8.5,10.4-13.7,18.9-11.8c4.2,1,7.7,3.6,9.9,7.2c9.2,15,20.6,30.4,18.8,48.7c20-66.1-1.2-141.6-52.2-188.1
	c-12.9-4.8-24.3-15-28.8-28.2c6.2,1.1,12.8-4.8,7.5-10.3c-2.3-2.1-4.6-4.2-6.8-6.3c18.9-27.2,51.1,6.4,31.2,42.2
	c9.6,8.9,18.2,18.8,25.7,29.5c-3.2-12.1-3.4-24.7-0.7-36.9c2.9-11.4,9.9-21.7,15.9-32.1C285.8,0,305,2.5,308.4,16.7
	c-7.9,3.9-7.2,16,2.5,16.3c1.5,27.1-12.4,54.3-34.7,69.6c12.6,23.6,20,49.7,21.7,76.4c-0.3-31.5,31.7-43.9,53-59.5
	c3.8-3.3,9.6-2.9,12.9,0.9c1.5,1.7,2.3,3.9,2.2,6.2c-3,1.8-5.8,3.8-8.4,6.2c-3.2,3-3.5,8-0.5,11.2c1.6,1.8,3.9,2.7,6.3,2.6
	c-7.4,30.6-34.7,54.4-65.7,58.9c-1.1,13.4-3.5,26.6-7.3,39.5l-46,6.8c-0.2-0.5-0.5-1-0.7-1.5c4.3-0.4,8.5-1.2,12.6-2.6
	C243,235.9,233.3,230.4,237.1,210.8L237.1,210.8z"/>
<path class="st1" d="M283.4,196.1c-20.9,0-32.3-2.6-36.3-8c-3.5-4.8-1.2-11.2,1.6-18.5c2-5.3,4.2-11.3,4.2-17.2
	c0-28.9,14.6-43.5,43.5-43.5c14.4,0,29.8,7.6,41.2,20.4c10.4,11.6,15.6,25.5,14.2,38.1l0,0c-1.1,10.4-5.9,17.2-15.2,21.4l-0.5,0.2
	l-0.2-0.6c-0.8-3-2.1-5.8-4-8.2c-0.2,3.9-1.2,7.7-2.9,11.2l-0.1,0.2l-0.2,0.1c-10.4,3-22.8,3.8-32.5,4.1
	C291.7,196,287.4,196.1,283.4,196.1z"/>
<path class="st2" d="M289.1,236.3c-2.8-8.2-11.7-12.6-19.9-9.8c-1.6,0.6-3.2,1.4-4.5,2.4l-68.9,41.2l-21.5-52.6c4.8-7,3-16.5-4-21.3
	c-7-4.8-16.5-3-21.3,4c-4.8,7-3,16.5,4,21.3c1.3,0.9,2.8,1.6,4.4,2.1c1.3,15.2,8.7,82.9,34.4,80.5c21.6-2.1,75.2-37.8,91.8-50.1
	C289.1,249.8,291.3,242.7,289.1,236.3z"/>
<path class="st1" d="M341,535.3h-59.9l-10-49.7l-3.3,49.7h-55.7c0-39,2.1-78,6.1-116.8l0.7-2.3l1.1-3.8l0.7-2.4l11.5-39.6l0.9-3.1
	h69.4c4,3.7,7.7,7.8,11,12.2c1.1,1.4,2.3,3,3.5,4.7c0.8,1.2,1.7,2.4,2.6,3.8c7.7,11.5,13.5,24.2,17.1,37.6v0c0.6,2.3,1.1,4.6,1.6,7
	v0c0.4,2.1,0.8,4.3,1.1,6.5c0.2,1.6,0.4,3.2,0.5,4.9c0.8,9.1,0.5,18.4-0.9,27.4L341,535.3z"/>
<ellipse transform="matrix(0.9326 -0.361 0.361 0.9326 -26.0036 12.8284)" class="st3" cx="21.3" cy="76" rx="7.6" ry="5.3"/>
<ellipse transform="matrix(0.9326 -0.361 0.361 0.9326 -20.4299 30.0945)" class="st4" cx="70.3" cy="69.7" rx="7.6" ry="5.3"/>
<ellipse transform="matrix(0.9326 -0.361 0.361 0.9326 -41.3827 14.1134)" class="st5" cx="17.1" cy="117.8" rx="7.6" ry="5.3"/>
<ellipse transform="matrix(0.9731 -0.2303 0.2303 0.9731 -31.3454 4.5246)" class="st3" cx="3.7" cy="136.5" rx="3.3" ry="4.8"/>
<ellipse transform="matrix(0.9731 -0.2303 0.2303 0.9731 -38.5446 5.2969)" class="st4" cx="3.4" cy="167.7" rx="3.3" ry="4.8"/>
<ellipse transform="matrix(0.9731 -0.2303 0.2303 0.9731 -22.4932 13.4643)" class="st3" cx="46.4" cy="103.1" rx="3.3" ry="4.8"/>
<ellipse transform="matrix(0.9731 -0.2303 0.2303 0.9731 -21.7435 7.3513)" class="st5" cx="20.6" cy="96.8" rx="3.3" ry="4.8"/>
<ellipse transform="matrix(0.9731 -0.2303 0.2303 0.9731 -14.3859 12.879)" class="st4" cx="48" cy="68.1" rx="3.3" ry="4.8"/>
<ellipse transform="matrix(0.6482 -0.7615 0.7615 0.6482 -196.474 142.5567)" class="st3" cx="56" cy="283.9" rx="5.3" ry="7.6"/>
<ellipse transform="matrix(0.6482 -0.7615 0.7615 0.6482 -176.093 106.4721)" class="st4" cx="27.2" cy="243.8" rx="5.3" ry="7.6"/>
<ellipse transform="matrix(0.6482 -0.7615 0.7615 0.6482 -170.5147 166.4046)" class="st5" cx="94.8" cy="267.7" rx="5.3" ry="7.6"/>
<ellipse transform="matrix(0.7461 -0.6659 0.6659 0.7461 -150.3133 147.0521)" class="st3" cx="117.6" cy="270.6" rx="4.8" ry="3.3"/>
<ellipse transform="matrix(0.7461 -0.6659 0.6659 0.7461 -133.5772 161.7176)" class="st4" cx="145.2" cy="256" rx="4.8" ry="3.3"/>
<ellipse transform="matrix(0.7461 -0.6659 0.6659 0.7461 -148.5387 108.4281)" class="st3" cx="67.9" cy="249" rx="4.8" ry="3.3"/>
<ellipse transform="matrix(0.7461 -0.6659 0.6659 0.7461 -163.9173 119.4624)" class="st5" cx="74.7" cy="274.6" rx="4.8" ry="3.3"/>
<ellipse transform="matrix(0.7461 -0.6659 0.6659 0.7461 -166.7428 91.3214)" class="st4" cx="36.4" cy="264.3" rx="4.8" ry="3.3"/>
<ellipse transform="matrix(0.8974 -0.4413 0.4413 0.8974 14.9398 113.9146)" class="st3" cx="252.3" cy="24.8" rx="5.3" ry="7.6"/>
<ellipse transform="matrix(0.8974 -0.4413 0.4413 0.8974 -5.2765 123.5272)" class="st4" cx="262.9" cy="73.1" rx="5.3" ry="7.6"/>
<ellipse transform="matrix(0.8974 -0.4413 0.4413 0.8974 10.8783 95.312)" class="st5" cx="210.3" cy="24.3" rx="5.3" ry="7.6"/>
<ellipse transform="matrix(0.9492 -0.3147 0.3147 0.9492 5.721 60.5996)" class="st3" cx="190.5" cy="12.6" rx="4.8" ry="3.3"/>
<ellipse transform="matrix(0.9492 -0.3147 0.3147 0.9492 3.3699 50.9277)" class="st4" cx="159.4" cy="15" rx="4.8" ry="3.3"/>
<ellipse transform="matrix(0.9492 -0.3147 0.3147 0.9492 -4.8653 74.2761)" class="st3" cx="227.6" cy="52.2" rx="4.8" ry="3.3"/>
<ellipse transform="matrix(0.9492 -0.3147 0.3147 0.9492 3.6008 74.195)" class="st5" cx="231.6" cy="25.9" rx="4.8" ry="3.3"/>
<ellipse transform="matrix(0.9492 -0.3147 0.3147 0.9492 -2.6052 85.2191)" class="st4" cx="262.6" cy="50.7" rx="4.8" ry="3.3"/>
<path class="st6" d="M273.3,204.1l33-1.7l15.3,24.2c0,0,28.9,4.8,26.9,38.8s-35.1,63.8-35.1,63.8l1.4,17.7l-2.5,7l0.3,3.9l3.4,4.2
	l0.3,4.3l-3,6.8l4,6.5l-84.9-8.2l-3.1-11.3l4.5-6.1l-2.5-7.9l3.8-7.6l2-24.2c0,0-21.7-32.6,3.2-57.2l10-17l11.2-13.7L273.3,204.1z"
	/>
<circle class="st2" cx="289.7" cy="162.3" r="35"/>
<path class="st1" d="M285,160.1c-3,0-6-0.1-9-0.3l-0.5,0l0.1-0.5c0.4-3.3,0.2-6.7-0.7-10c-1.6,3.7-3.9,7-6.9,9.7l-0.2,0.2l-0.2,0
	c-8.2-0.9-16.3-2.4-24.3-4.4l-0.3-0.1l-0.1-0.3c-0.6-2.9-0.9-5.9-0.9-8.9c0-9.3,3.4-17.2,9.5-22.1c6.7-5.4,16.2-7,27-4.6h34.2
	c7.8,0,14.2,6.4,14.2,14.2v21.7l-0.4,0.1C312.9,158.3,299,160.1,285,160.1z"/>
<path class="st7" d="M46.3,121.2c-3.2,1.2-4.8,4.7-3.7,7.9l36.9,101.4c1.2,3.2,4.7,4.8,7.9,3.7l143.4-52.3c3.2-1.2,4.8-4.7,3.7-7.9
	L197.6,72.7c-1.2-3.2-4.7-4.8-7.9-3.7L46.3,121.2z"/>
<path class="st8" d="M177.5,195.8l-87.8,32c-3.4,1.2-7.2-0.5-8.5-4l-33.5-91.9c-1.2-3.4,0.5-7.2,4-8.5l135.3-49.3
	c3.4-1.2,7.2,0.5,8.5,4l16.2,44.4C222.4,152.1,207.1,184.9,177.5,195.8z"/>
<path class="st6" d="M114.3,129.4L93.5,137c-1.1,0.4-2.3-0.2-2.7-1.3c-0.4-1.1,0.2-2.3,1.3-2.7c0,0,0,0,0,0l20.9-7.6
	c1.1-0.4,2.3,0.2,2.7,1.3C116,127.7,115.4,129,114.3,129.4z"/>
<path class="st6" d="M164,120.5l-67.6,24.6c-1.1,0.4-2.3-0.2-2.7-1.3c-0.4-1.1,0.2-2.3,1.3-2.7l67.6-24.6c1.1-0.4,2.3,0.2,2.7,1.3
	C165.7,118.8,165.1,120.1,164,120.5L164,120.5z"/>
<path class="st6" d="M167.4,129.8l-67.6,24.6c-1.1,0.4-2.3-0.2-2.7-1.3c-0.4-1.1,0.2-2.3,1.3-2.7c0,0,0,0,0,0l67.6-24.6
	c1.1-0.4,2.3,0.2,2.7,1.3S168.5,129.4,167.4,129.8L167.4,129.8L167.4,129.8z"/>
<path class="st6" d="M170.8,139.2l-67.6,24.6c-1.1,0.4-2.3-0.2-2.7-1.3c-0.4-1.1,0.2-2.3,1.3-2.7l67.6-24.6c1.1-0.4,2.3,0.2,2.7,1.3
	C172.5,137.5,171.9,138.8,170.8,139.2L170.8,139.2z"/>
<path class="st6" d="M174.3,148.5l-67.6,24.6c-1.1,0.4-2.3-0.2-2.7-1.3c-0.4-1.1,0.2-2.3,1.3-2.7c0,0,0,0,0,0l67.6-24.6
	c1.1-0.4,2.3,0.2,2.7,1.3C175.9,146.9,175.4,148.1,174.3,148.5z"/>
<path class="st2" d="M388.8,174.5l-37,88.6c-3.3,7.8-12.2,11.5-20.1,8.4l0,0c-7.9-3.2-11.8-12.2-8.6-20.2c0.1-0.3,0.2-0.5,0.3-0.8
	l41.3-90.8l22.8-56.3c-5.3-5.3-5.3-13.8,0-19.1c5.3-5.3,13.8-5.3,19.1,0s5.3,13.8,0,19.1c-0.6,0.6-1.2,1.1-1.8,1.5L388.8,174.5z"/>
</svg>
