<?xml version="1.0" encoding="utf-8"?>
<!-- Generator: Adobe Illustrator 27.3.1, SVG Export Plug-In . SVG Version: 6.00 Build 0)  -->
<svg version="1.1" id="Layer_1" xmlns="http://www.w3.org/2000/svg" xmlns:xlink="http://www.w3.org/1999/xlink" x="0px" y="0px"
	 viewBox="0 0 500 500" style="enable-background:new 0 0 500 500;" xml:space="preserve">
<style type="text/css">
	.st0{fill:#F5F5F5;}
	.st1{fill:#EBEBEB;}
	.st2{fill:#E0E0E0;}
	.st3{fill:#263238;}
	.st4{fill:#FFFFFF;}
	.st5{fill:#455A64;}
	.st6{fill:#FF5555;}
	.st7{opacity:0.6;}
	.st8{opacity:0.3;}
	.st9{fill:#FFBE9D;}
	.st10{fill:#EB996E;}
	.st11{fill:#F8BD7F;}
</style>
<g id="freepik--background-complete--inject-37">
	<path class="st0" d="M195.3,51.4c0.5-3.7-4.8-6.8-8.7-7.1c-1.9-0.2-3.9,0.1-5.6-0.5c-3.9-1.3-5.4-6.4-9.2-8
		c-2.8-1.2-6.1-0.1-8.8,1.2s-5.5,3.1-8.5,3.3c-2.7,0.2-5.6-0.8-7.9,0.5c-1.7,1-2.6,3-4.2,4.2c-1.7,1-3.6,1.6-5.6,1.5
		c-2-0.1-3.9,0.3-5.7,0.9c-1.8,0.8-3.2,2.7-2.9,4.6L195.3,51.4z"/>
	<path class="st1" d="M460.8,272.1c0.9-6.2-7.9-11.3-14.5-11.9c-3.1-0.3-6.4,0.2-9.4-0.8c-6.4-2.2-9-10.6-15.3-13.2
		c-4.7-2-10.1-0.2-14.7,2.1s-9.1,5.2-14.2,5.5c-4.4,0.3-9.2-1.4-13.1,0.8c-2.9,1.6-4.4,4.9-7.1,6.9s-6,2.3-9.2,2.5s-6.6,0.2-9.5,1.5
		s-5.4,4.5-4.8,7.6L460.8,272.1z"/>
	<path class="st0" d="M127.4,120.5c0.7-4.8-6.1-8.7-11.1-9.1c-2.4-0.2-4.9,0.2-7.2-0.6c-4.9-1.7-6.9-8.1-11.7-10.1
		c-3.6-1.5-7.7-0.2-11.2,1.6s-6.9,4-10.8,4.2c-3.4,0.2-7.1-1-10,0.6c-2.2,1.2-3.4,3.8-5.4,5.3s-4.6,1.8-7.1,1.9s-5,0.2-7.3,1.2
		s-4.1,3.4-3.7,5.8L127.4,120.5z"/>
	<polygon class="st2" points="392.9,379.4 370.6,476 380,476 402.3,380.3 	"/>
	<polygon class="st2" points="433.5,379.4 455.8,476 464.7,476 443.1,379.4 	"/>
	<polygon class="st2" points="377.9,306.8 390.5,373.3 404.9,373.3 391.4,306.8 	"/>
	<polygon class="st2" points="157.2,379.4 139.1,476 148.3,476 167.3,379.4 	"/>
	<polygon class="st2" points="195.4,379.4 216.1,475.5 225.2,475.5 205.2,379.4 	"/>
	<polygon class="st2" points="142.2,306.8 154.9,373.3 169.3,373.3 155.7,306.8 	"/>
	<polygon class="st1" points="113.7,300.8 116.3,312.9 405.3,312.9 402,300.8 	"/>
	<polygon class="st1" points="119.2,324.3 122.3,336.4 409.4,336.4 406.8,324.3 	"/>
	<polygon class="st1" points="124.9,348.6 127.8,360.7 414,360.7 411.3,348.6 	"/>
	<rect x="146.8" y="373.3" class="st1" width="308.6" height="12.1"/>
	<path class="st1" d="M330.4,223.6c-7.5,0-13.6-6.1-13.6-13.6c0-2.4,0.6-4.7,1.8-6.8l39-68c2.4-4.2,6.9-6.8,11.8-6.8l0,0
		c4.9,0,9.3,2.6,11.8,6.8l39.4,67.8c3.8,6.5,1.6,14.8-4.9,18.6c-2.1,1.2-4.4,1.8-6.8,1.8L330.4,223.6L330.4,223.6z M369.4,132.5
		L369.4,132.5c-3.4,0-6.6,1.8-8.2,4.8l-39,68c-2.6,4.6-1,10.4,3.5,13c1.4,0.8,3.1,1.3,4.7,1.3l0,0l78.4-0.2c5.3,0,9.5-4.3,9.5-9.6
		c0-1.7-0.4-3.3-1.3-4.7l-39.4-67.8C375.9,134.3,372.8,132.4,369.4,132.5L369.4,132.5z"/>
	<path class="st1" d="M361.7,161.9l1.8,25.4c0.1,2.1,1.8,3.7,3.9,3.8l0,0c2.2,0.1,4.1-1.5,4.3-3.7l2.6-25.5c0.2-1.8-1.1-3.4-2.9-3.5
		c-0.1,0-0.3,0-0.4,0l-6.2,0.1c-1.8,0-3.2,1.5-3.2,3.3C361.7,161.8,361.7,161.8,361.7,161.9z"/>
	<path class="st1" d="M374.3,205.3c-1.1,3.3-4.5,5-7.8,4c-3.3-1.1-5-4.5-4-7.8c1.1-3.2,4.5-5,7.8-4
		C373.5,198.5,375.3,202,374.3,205.3C374.3,205.3,374.3,205.3,374.3,205.3z"/>
</g>
<g id="freepik--Floor--inject-37">
	<path class="st3" d="M469.8,475.9c0,0.1-98.4,0.3-219.8,0.3S30.2,476,30.2,475.9s98.4-0.3,219.8-0.3S469.8,475.7,469.8,475.9z"/>
</g>
<g id="freepik--Device--inject-37">
	<path class="st3" d="M317.5,368.6l-101-0.1c-12.1,0-22-10.4-22-23.1v-266c0-12.8,9.9-23.1,22-23.1l100.9,0.1
		c12.1,0,22,10.4,22,23.1l0,266C339.5,358.2,329.7,368.6,317.5,368.6z"/>
	<path class="st4" d="M317.5,65.8h-19.6c-2.8,0.1-4.9,2.5-4.8,5.2v3.7c0.1,2.8-2,5.1-4.8,5.2h-38.1c-2.8-0.1-4.9-2.5-4.8-5.2V71
		c0.1-2.8-2-5.1-4.8-5.2h-24c-8.5,0-15.4,7.2-15.4,16.2v259.6c0,8.9,6.9,16.2,15.4,16.2l100.8,0.1c8.5,0,15.4-7.2,15.4-16.2l0-259.7
		C332.9,73,326,65.8,317.5,65.8z"/>
	<path class="st2" d="M228.8,333.3v6.4c0,0.4-0.3,0.7-0.7,0.7c-0.1,0-0.3,0-0.4-0.1l-5-3.2c-0.3-0.2-0.4-0.6-0.2-1
		c0.1-0.1,0.1-0.2,0.2-0.2l5-3.2c0.3-0.2,0.8-0.1,1,0.2C228.8,333,228.8,333.1,228.8,333.3z"/>
	<path class="st2" d="M269.9,336.4c0,2.4-2,4.4-4.4,4.4c-2.4,0-4.4-2-4.4-4.4c0-2.4,2-4.4,4.4-4.4C267.9,332,269.9,334,269.9,336.4z
		"/>
	<path class="st2" d="M303.2,332.6h4.3c1,0,1.9,0.8,1.9,1.9v4.4c0,1-0.8,1.9-1.9,1.9h-4.3c-1,0-1.9-0.8-1.9-1.9v-4.4
		C301.3,333.4,302.2,332.6,303.2,332.6z"/>
	
		<ellipse transform="matrix(0.7071 -0.7071 0.7071 0.7071 -49.2855 241.9778)" class="st0" cx="267.5" cy="180.5" rx="49.7" ry="49.7"/>
	<path class="st5" d="M269.7,202.4c0,2.3-1.9,4.1-4.1,4.1c-2.3,0-4.1-1.9-4.1-4.1c0-2.3,1.9-4.1,4.1-4.1c0,0,0,0,0,0
		C267.8,198.3,269.7,200.1,269.7,202.4z"/>
	<path class="st5" d="M257.4,197.1c4.3-4.6,11.5-4.9,16.1-0.6c0.1,0.1,0.3,0.2,0.4,0.4c2.1,2.1,5.4-1.1,3.3-3.2
		c-6.3-6.3-16.4-6.3-22.7-0.1c-0.1,0.1-0.2,0.2-0.3,0.3C252.1,196,255.3,199.3,257.4,197.1L257.4,197.1z"/>
	<path class="st5" d="M243.4,178c6.2-5.4,13.7-8.8,22.1-8.8c8.3-0.1,16.4,3,22.5,8.6c2.2,2,5.5-1.2,3.3-3.2
		c-7-6.5-16.2-10.1-25.8-10c-9.6,0-18.1,4-25.3,10.2C237.9,176.6,241.2,179.9,243.4,178L243.4,178z"/>
	<path class="st5" d="M248.9,188.6c8.3-9.3,22.6-10.1,31.9-1.8c0.5,0.4,0.9,0.8,1.3,1.3c2.1,2.1,5.4-1.1,3.3-3.3
		c-10.4-10.9-27.6-11.2-38.5-0.8c-0.4,0.4-0.9,0.9-1.3,1.3C243.6,187.5,246.9,190.8,248.9,188.6z"/>
	
		<ellipse transform="matrix(0.1742 -0.9847 0.9847 0.1742 76.5861 425.5031)" class="st6" cx="292" cy="167.1" rx="12.6" ry="12.6"/>
	
		<rect x="286.6" y="165.4" transform="matrix(0.7071 -0.7071 0.7071 0.7071 -32.2535 255.4864)" class="st4" width="11.3" height="2.5"/>
	
		<rect x="291" y="161" transform="matrix(0.7071 -0.7071 0.7071 0.7071 -32.2458 255.4865)" class="st4" width="2.5" height="11.3"/>
	<path class="st2" d="M264.1,93.6c0.6-0.4,1.3-0.7,2-0.9l0.4-2l3.3-0.1l0.5,2c0.7,0.2,1.4,0.4,2,0.8l1.7-1.1l2.4,2.3l-1,1.7
		c0.4,0.6,0.7,1.3,0.9,2l2,0.4l0.1,3.3l-2,0.5c-0.2,0.7-0.4,1.4-0.8,2l1.1,1.7l-2.3,2.4l-1.7-1c-0.6,0.4-1.3,0.7-2,0.9l-0.4,2
		l-3.3,0.1l-0.5-2c-0.7-0.2-1.4-0.4-2-0.8l-1.7,1.1l-2.4-2.3l1-1.7c-0.4-0.6-0.7-1.3-0.9-2l-2-0.4l-0.1-3.3l2-0.5
		c0.2-0.7,0.4-1.4,0.8-2l-1.1-1.7l2.3-2.4L264.1,93.6L264.1,93.6z M265.9,98c-1.4,1.4-1.3,3.7,0.1,5.1s3.7,1.3,5.1-0.1
		c1.4-1.4,1.3-3.7-0.1-5.1c0,0,0,0,0,0C269.5,96.5,267.3,96.6,265.9,98z"/>
	<path class="st3" d="M221.8,101c-1,0-2.4,0-3.7,0c-1.6,0-3.2,0-4.3,0l0,0c-0.3,0-0.5-0.2-0.5-0.5c0-0.3,0.2-0.5,0.5-0.5
		c0,0,0,0,0,0c1.1,0,2.7,0,4.3,0s3.2,0.1,4.3,0l0,0c0.3,0,0.5,0.2,0.5,0.5c0,0,0,0,0,0c0,0.3-0.2,0.5-0.5,0.5c0,0,0,0,0,0H221.8z"/>
	<path class="st3" d="M216.9,104.4c-0.1,0-0.3-0.1-0.4-0.2l-3-3.4c-0.2-0.2-0.2-0.5,0-0.7l3-3.1c0.2-0.2,0.5-0.2,0.7-0.1
		c0.2,0.2,0.2,0.5,0.1,0.7c0,0,0,0-0.1,0.1l-2.6,2.8l2.7,3.1c0.2,0.2,0.2,0.5,0,0.7C217.2,104.3,217,104.4,216.9,104.4L216.9,104.4z
		"/>
	<circle class="st3" cx="319.9" cy="96.5" r="1.5"/>
	<path class="st3" d="M321.5,101.4c0,0.9-0.7,1.6-1.6,1.6c-0.9,0-1.6-0.7-1.6-1.6c0-0.9,0.7-1.6,1.5-1.6c0,0,0,0,0,0
		C320.8,99.9,321.5,100.6,321.5,101.4z"/>
	<circle class="st3" cx="319.9" cy="106.3" r="1.5"/>
	<path class="st3" d="M233.8,248.9c-2.4,0.3-4.7,0.3-7.1,0.3c-2.4,0.1-4.7,0-7.1-0.3c2.4-0.3,4.7-0.3,7.1-0.3
		C229,248.5,231.4,248.6,233.8,248.9z"/>
	<path class="st3" d="M259.2,265.5c0,0.1-8.7,0.3-19.5,0.3s-19.5-0.1-19.5-0.3s8.7-0.3,19.5-0.3S259.2,265.4,259.2,265.5z"/>
	<path class="st3" d="M259.2,282c0,0.1-8.7,0.3-19.5,0.3s-19.5-0.1-19.5-0.3s8.7-0.3,19.5-0.3S259.2,281.8,259.2,282z"/>
	<path class="st1" d="M296.5,259.3h14.2c3.4,0,6.2,2.8,6.2,6.2l0,0c0,3.4-2.8,6.2-6.2,6.2h-14.2c-3.4,0-6.2-2.8-6.2-6.2l0,0
		C290.2,262,293,259.3,296.5,259.3z"/>
	<path class="st2" d="M301.6,265.5c0,2.9-2.3,5.2-5.2,5.2s-5.2-2.3-5.2-5.2s2.3-5.2,5.2-5.2S301.6,262.6,301.6,265.5L301.6,265.5z"
		/>
	<path class="st1" d="M310.7,288.2h-14.2c-3.4,0-6.2-2.8-6.2-6.2c0,0,0,0,0,0l0,0c0-3.4,2.8-6.2,6.2-6.2c0,0,0,0,0,0h14.2
		c3.4,0,6.2,2.8,6.2,6.2c0,0,0,0,0,0l0,0C316.9,285.4,314.2,288.2,310.7,288.2C310.7,288.2,310.7,288.2,310.7,288.2z"/>
	<circle class="st2" cx="296.4" cy="282" r="5.2"/>
	<path class="st3" d="M259.2,298.6c0,0.1-8.7,0.3-19.5,0.3s-19.5-0.1-19.5-0.3s8.7-0.3,19.5-0.3S259.2,298.4,259.2,298.6z"/>
	<path class="st1" d="M310.7,306.6h-14.2c-3.4,0-6.2-2.8-6.2-6.2c0,0,0,0,0,0l0,0c0-3.4,2.8-6.2,6.2-6.2c0,0,0,0,0,0h14.2
		c3.4,0,6.2,2.8,6.2,6.2c0,0,0,0,0,0l0,0C316.9,303.9,314.2,306.6,310.7,306.6C310.7,306.6,310.7,306.6,310.7,306.6z"/>
	<circle class="st2" cx="296.4" cy="300.4" r="5.2"/>
</g>
<g id="freepik--Sun--inject-37">
	
		<ellipse transform="matrix(0.1594 -0.9872 0.9872 0.1594 268.0402 476.0991)" class="st6" cx="413.6" cy="80.7" rx="16.3" ry="16.3"/>
	<path class="st6" d="M411.3,117.1c-0.1,0-0.2-3-0.2-6.7s0.1-6.7,0.2-6.7c0.2,2.2,0.2,4.5,0.2,6.7
		C411.5,112.6,411.4,114.9,411.3,117.1z"/>
	<path class="st6" d="M401.9,99.9c0.1,0-1.5,2.9-3.4,6.3s-3.6,6.2-3.7,6.1s1.5-2.8,3.4-6.3S401.8,99.8,401.9,99.9z"/>
	<path class="st6" d="M392.2,93.9c-1.2,1.2-2.5,2.2-3.8,3.2c-1.3,1.1-2.6,2.1-4,3c1.2-1.2,2.5-2.2,3.8-3.2
		C389.5,95.8,390.8,94.8,392.2,93.9z"/>
	<path class="st6" d="M427.5,110.5c-0.2-0.5-0.3-1.1-0.4-1.7c-0.2-1-0.6-2.4-1-4s-0.8-2.9-1.1-3.9c-0.2-0.5-0.4-1.1-0.5-1.7
		c0.3,0.5,0.5,1,0.7,1.6c0.4,1,0.8,2.4,1.2,3.9s0.7,3,0.9,4C427.4,109.3,427.5,109.9,427.5,110.5z"/>
	<path class="st6" d="M444,98.8c-1.7-1.2-3.3-2.6-4.8-4c-1.6-1.3-3.1-2.7-4.6-4.2c1.7,1.2,3.3,2.6,4.8,4
		C441.1,95.8,442.6,97.3,444,98.8z"/>
	<path class="st6" d="M450.4,82.6c-0.7,0-1.3-0.1-2-0.3c-1.2-0.2-2.9-0.5-4.7-0.7s-3.5-0.3-4.8-0.4c-0.7,0-1.3-0.1-2-0.2
		c0.7-0.1,1.3-0.1,2-0.1c1.2,0,2.9,0.1,4.8,0.3s3.5,0.5,4.7,0.8C449.1,82.2,449.7,82.4,450.4,82.6z"/>
	<path class="st6" d="M450.4,66.8c0,0.1-3.5,1-7.9,2.1s-7.9,1.8-8,1.8s3.5-1,7.9-2.1S450.4,66.7,450.4,66.8z"/>
	<path class="st6" d="M432,48.3c0.1,0-1.6,2.7-3.8,6s-4,5.9-4.1,5.8s1.6-2.7,3.8-6C429.2,52.1,430.5,50.2,432,48.3z"/>
	<path class="st6" d="M413.7,44.5c0.1,0.7,0.1,1.5,0,2.2c0,1.4,0,3.3,0,5.4s0,4,0.1,5.4c0.1,0.7,0.1,1.5,0,2.2
		c-0.1-0.7-0.2-1.5-0.2-2.2c-0.1-1.4-0.1-3.3-0.1-5.4s0.1-4,0.1-5.4C413.5,45.9,413.6,45.2,413.7,44.5z"/>
	<path class="st6" d="M399.9,61.7c-0.1,0-1.8-2.6-3.8-5.9s-3.6-6.1-3.5-6.1s1.8,2.6,3.8,6S400,61.7,399.9,61.7z"/>
	<path class="st6" d="M391.6,68.7c-0.6,0-1.2-0.1-1.7-0.3c-1.1-0.2-2.5-0.6-4.1-1s-3-1-4-1.3c-0.6-0.2-1.1-0.4-1.6-0.7
		c0.6,0.1,1.1,0.3,1.7,0.5c1,0.3,2.5,0.8,4,1.2s3,0.9,4.1,1.1C390.5,68.4,391.1,68.5,391.6,68.7z"/>
	<path class="st6" d="M388,81.2c-1.7,0.3-3.5,0.6-5.2,0.7c-1.7,0.2-3.5,0.3-5.2,0.3c1.7-0.3,3.5-0.6,5.2-0.7
		C384.5,81.4,386.3,81.2,388,81.2z"/>
</g>
<g id="freepik--plant-2--inject-37">
	<path class="st5" d="M376.9,371.7l14.6,103.9l3.8,0.1C392.8,440.5,390.3,404.5,376.9,371.7z"/>
	<path class="st5" d="M417.4,366.9c-10.2,11.1-14.3,26.5-16.9,41.4c-3.7,21.1-4,46-2.9,67.4l5.3,0.1
		C400.8,438.9,405.7,402,417.4,366.9z"/>
	<path class="st5" d="M379.6,433.2c-1.2-5.1-2.5-10.4-5.5-14.8c-4-5.9-10.4-9.7-16.9-12.6s-13.3-5.2-19.2-9.3
		c6.6,10.8,21.4,13.6,29,23.7c3.8,5,5.3,11.3,6.8,17.4c3.2,13.3,5.2,24.8,8.4,38h4.3C385.1,461.3,382.8,447.2,379.6,433.2z"/>
	<path class="st5" d="M406.8,475.7c0,0,3.6-41.2,6.4-48.8s28.3-28.5,28.1-27.5s-19.2,23.9-21.9,28.6s-7.4,47.7-7.4,47.7H406.8z"/>
</g>
<g id="freepik--plant-1--inject-37">
	<path class="st6" d="M285.8,432.6c2,0.8,3.7,2.4,4.5,4.5c0.8,2,1.2,4.2,1,6.4c-0.2,4.2-2.3,8.6-4.6,12.1c-3.7-2.8-4.9-8.1-5.3-10.9
		C280.7,440.4,282.1,432.2,285.8,432.6"/>
	<path class="st6" d="M291.2,462.1c-0.6-2.4,0-5,1.8-6.7c1.8-1.7,4.2-2.6,6.6-2.5c1.1-0.1,2.2,0.3,3,1.1c0.6,0.9,0.7,2,0.2,3
		c-0.5,0.9-1.2,1.7-2.1,2.3C297.8,461.4,294.6,462.9,291.2,462.1"/>
	<path class="st3" d="M287.5,475.2c0-0.3,0-0.6,0.1-0.9c0.1-0.6,0.2-1.4,0.3-2.3c0.2-2.6,0.9-5.2,1.9-7.6c1.1-2.4,2.8-4.5,5-6
		c0.7-0.4,1.4-0.8,2.1-1.1c0.2-0.1,0.4-0.1,0.6-0.2l0.2,0c-1,0.4-1.9,0.9-2.8,1.5c-2.1,1.5-3.7,3.6-4.8,5.9c-1,2.4-1.7,4.9-2,7.5
		c-0.1,1-0.3,1.8-0.4,2.3C287.6,474.6,287.6,474.9,287.5,475.2z"/>
	<path class="st3" d="M285.3,438.9c0,0.1,0.1,0.2,0.1,0.4l0.1,1.1c0.1,0.9,0.3,2.3,0.4,4c0.3,3.3,0.7,8,1,13s0.5,9.7,0.6,13.1
		c0,1.7,0.1,3,0.1,4v1.1c0,0.2,0,0.4,0,0.4c0-0.1,0-0.3,0-0.4l0-1.1c0-1-0.1-2.3-0.2-4c-0.1-3.4-0.3-8-0.6-13.1s-0.7-9.7-0.9-13
		c-0.1-1.6-0.2-3-0.3-4c0-0.4-0.1-0.8-0.1-1.1C285.3,439.2,285.3,439,285.3,438.9z"/>
	<path class="st6" d="M285.3,465.1c-1.2-5.1-4.8-9.3-9.6-11.2c-1.2-0.5-2.8-0.8-3.7,0.2s-0.6,2.5,0,3.7c2.4,5,7.7,8.1,13.2,7.7"/>
	<path class="st3" d="M276.5,457.7c0.3,0.1,0.5,0.2,0.8,0.3c0.2,0.1,0.5,0.2,0.9,0.4s0.7,0.4,1.1,0.6c0.4,0.3,0.9,0.5,1.3,0.8
		c0.5,0.3,0.9,0.7,1.4,1.1c1,0.9,1.9,1.9,2.7,3c0.8,1.1,1.4,2.3,1.9,3.6c0.2,0.6,0.4,1.1,0.5,1.7c0.1,0.5,0.2,1,0.3,1.5
		c0.1,0.4,0.1,0.8,0.1,1.3c0,0.3,0,0.7,0,1c0,0.3,0,0.5,0,0.8c-0.1,0,0-1.2-0.4-3c-0.1-0.5-0.2-1-0.3-1.5c-0.2-0.6-0.3-1.1-0.5-1.6
		c-0.5-1.2-1.1-2.4-1.9-3.5c-0.8-1.1-1.6-2.1-2.6-3c-0.4-0.4-0.9-0.8-1.4-1.1c-0.4-0.3-0.9-0.6-1.2-0.9
		C277.6,458.2,276.5,457.8,276.5,457.7z"/>
</g>
<g id="freepik--Character--inject-37">
	<path class="st5" d="M110.1,420.8l-28.1,23.1l28.5,35.1c3.2-2.9-4.8-26.6-4.8-26.6l18.6-14L110.1,420.8z"/>
	<g class="st7">
		<path class="st4" d="M98.3,440.3c-0.8-0.5-1.8-0.4-2.4,0.3c-0.6,0.8-0.4,1.8,0.3,2.4c0.8,0.5,1.9,0.4,2.6-0.4
			c0.5-0.9,0.2-2-0.6-2.5"/>
	</g>
	<g class="st7">
		<path class="st4" d="M82.1,443.8l2.8-2.3l26.1,34.8c0,0,0.6,2.1-0.7,2.8L82.1,443.8z"/>
	</g>
	<path class="st3" d="M106.3,452.9c-0.2,0.1-1-0.7-2.2-1s-2.3-0.3-2.4-0.5s1.1-0.8,2.6-0.2S106.5,452.8,106.3,452.9z"/>
	<path class="st3" d="M107.8,457.8c-0.1,0.2-1-0.3-2.2-0.3s-2.1,0.5-2.2,0.3s0.8-1.1,2.2-1.1S107.9,457.6,107.8,457.8z"/>
	<path class="st3" d="M105,463.5c-0.2-0.1,0.5-1.1,1.8-1.4s2.3,0.2,2.2,0.4s-1,0.1-2,0.4S105.2,463.6,105,463.5z"/>
	<path class="st3" d="M110.2,449.2c-0.2,0.1-0.6-0.9-1.5-1.8s-1.8-1.4-1.7-1.6s1.3,0,2.3,1.1S110.4,449.2,110.2,449.2z"/>
	<path class="st3" d="M113.7,445c-0.1,0.1-0.7-0.5-1.4-1.8c-0.4-0.7-0.7-1.5-0.9-2.3c-0.1-0.5-0.2-1-0.3-1.4c0-0.3,0-0.6,0-0.9
		c0.1-0.4,0.4-0.8,0.8-0.8c0.4,0,0.8,0.1,1,0.4c0.2,0.2,0.3,0.5,0.4,0.7c0.2,0.5,0.4,0.9,0.5,1.4c0.2,0.8,0.3,1.6,0.2,2.5
		c0,0.8-0.2,1.5-0.6,2.2c-0.1,0,0.1-0.9,0-2.2c0-0.8-0.2-1.5-0.4-2.3c-0.1-0.4-0.3-0.9-0.5-1.3c-0.2-0.5-0.5-0.8-0.7-0.7
		s-0.1,0-0.2,0.2c0,0.2,0,0.4,0,0.6c0,0.5,0.1,0.9,0.2,1.4c0.2,0.8,0.4,1.5,0.7,2.2C113.1,443.6,113.4,444.3,113.7,445z"/>
	<path class="st3" d="M113.2,444.9c-0.1,0,0.3-0.9,1.3-1.9c0.6-0.6,1.3-1,2.1-1.3c0.5-0.2,0.9-0.3,1.4-0.4c0.6-0.2,1.3,0,1.8,0.4
		c0.3,0.3,0.3,0.8,0.1,1.1c-0.1,0.3-0.3,0.5-0.5,0.7c-0.3,0.4-0.7,0.7-1.2,1c-0.7,0.4-1.6,0.7-2.4,0.7c-1.5,0-2.3-0.5-2.2-0.6
		c0.7,0,1.4,0,2.2,0c0.8-0.1,1.5-0.4,2.1-0.8c0.4-0.2,0.7-0.5,1-0.9c0.3-0.4,0.5-0.7,0.4-0.9c-0.3-0.2-0.7-0.3-1.1-0.1
		c-0.4,0.1-0.9,0.2-1.3,0.3c-0.7,0.3-1.4,0.6-2,1.1C113.8,444.3,113.3,445,113.2,444.9z"/>
	<path class="st5" d="M97.3,439.6l0.3,36.4l45.3-0.2c-0.3-4.3-23.7-12.9-23.7-12.9l0.7-23.3L97.3,439.6z"/>
	<g class="st7">
		<path class="st4" d="M105.2,461c-0.9,0.3-1.4,1.2-1.3,2.1c0.2,0.9,1.2,1.5,2.1,1.3c0.9-0.3,1.5-1.3,1.3-2.2
			c-0.4-0.9-1.4-1.4-2.3-1.1"/>
	</g>
	<g class="st7">
		<path class="st4" d="M97.7,475.9v-3.7l43.5,1.5c0,0,2,0.9,1.8,2.3L97.7,475.9z"/>
	</g>
	<path class="st3" d="M119.9,462.7c0,0.2-1.1,0.3-2.2,1s-1.7,1.6-1.9,1.6s0.1-1.4,1.4-2.2S120,462.5,119.9,462.7z"/>
	<path class="st3" d="M124.7,464.6c0,0.2-0.9,0.6-1.7,1.5s-1,1.9-1.2,1.9s-0.4-1.3,0.6-2.4S124.7,464.4,124.7,464.6z"/>
	<path class="st3" d="M127.4,470.3c-0.2,0-0.5-1.1,0-2.3s1.6-1.7,1.7-1.5s-0.5,0.8-1,1.8S127.6,470.3,127.4,470.3z"/>
	<path class="st3" d="M119.5,457.4c-0.1,0.2-1.1-0.1-2.4,0s-2.2,0.5-2.3,0.3s0.8-1,2.3-1.1S119.6,457.2,119.5,457.4z"/>
	<path class="st3" d="M118.4,452c-0.7,0.2-1.5,0.2-2.3,0c-1.3-0.2-2.6-0.7-3.7-1.4c-0.3-0.1-0.5-0.3-0.7-0.5
		c-0.3-0.3-0.3-0.8-0.1-1.2c0.2-0.3,0.6-0.5,1-0.5c0.3,0,0.6,0,0.8,0.1c1.3,0.3,2.5,0.9,3.5,1.8c1.1,1,1.4,1.8,1.3,1.8
		s-0.6-0.6-1.7-1.4c-0.6-0.5-1.3-0.8-2-1.1c-0.4-0.2-0.9-0.3-1.3-0.4c-0.5-0.1-0.9-0.1-1,0.1s0,0.1,0.1,0.2c0.1,0.2,0.3,0.3,0.5,0.4
		c0.4,0.2,0.8,0.5,1.2,0.7c0.7,0.3,1.4,0.6,2.2,0.8C117,451.6,117.7,451.8,118.4,452z"/>
	<path class="st3" d="M118.1,452.3c-0.1,0-0.5-0.8-0.6-2.2c0-0.8,0.1-1.7,0.3-2.5c0.1-0.5,0.3-0.9,0.6-1.4c0.2-0.6,0.8-1,1.4-1.1
		c0.4,0,0.8,0.2,1,0.6c0.1,0.3,0.2,0.5,0.2,0.8c0.2,1.4-0.2,2.8-1,3.9c-0.9,1.2-1.8,1.5-1.8,1.4s0.7-0.5,1.4-1.7
		c0.4-0.6,0.6-1.4,0.7-2.1c0.1-0.4,0.1-0.9,0-1.3c-0.1-0.5-0.3-0.9-0.4-0.8s-0.6,0.4-0.8,0.8c-0.2,0.4-0.4,0.8-0.6,1.2
		c-0.2,0.7-0.4,1.5-0.4,2.3C118,451.5,118.2,452.3,118.1,452.3z"/>
	<path class="st3" d="M101.2,228.9c0,0-6.3,6.8-9.5,13.3s-5.1,22-5.1,22s-8.8,19.5-7.4,29.5S89.5,372,89.5,372s-0.4,66.4,5.9,78.2
		l1.4,6.4l25.5-4.6l0,0l-0.2-3.8l6-130.1l15.4-88.6L101.2,228.9z"/>
	<path class="st3" d="M157.5,248.3c0,0,15.2,84,16.6,98.6s-50.6,91.4-50.6,91.4l-23.7-24.7l34.1-63.4l-11.1-63.9l15.4-56.4l16.2,0.6
		L157.5,248.3z"/>
	<path class="st5" d="M91.4,429.5c0,0.6,0.1,1.2,0.2,1.9c0.2,1.2,0.5,3,0.9,5.3c0.8,4.6,2.2,11.3,4.1,19.7v0.2h0.2l25.5-4.5h0.2
		v-0.2c0.7-17.5,1.6-38.4,2.5-60.9c0.9-24.1,1.8-46.5,2.5-64.9l0,0c1.9-14.8,3.5-27,4.6-35.5c0.5-4.2,0.9-7.6,1.2-9.9
		c0.1-1.1,0.2-2,0.3-2.6s0.1-0.9,0.1-0.9s-0.1,0.3-0.1,0.9s-0.2,1.5-0.4,2.6c-0.3,2.3-0.8,5.6-1.4,9.9c-1.1,8.5-2.8,20.7-4.8,35.5
		l0,0c-0.7,18.4-1.7,40.8-2.6,64.9c-0.9,22.5-1.7,43.4-2.4,60.9l0.2-0.2l-25.5,4.6l0.2,0.1c-1.9-8.4-3.3-15-4.2-19.6
		c-0.4-2.3-0.8-4.1-1-5.3c-0.1-0.6-0.2-1.1-0.2-1.4C91.4,429.8,91.4,429.7,91.4,429.5z"/>
	<path class="st5" d="M61.8,194.1c0,0,15.8-34.1,19.5-35.9s14.4-2.4,15.9-0.4l-28.3,40.8L61.8,194.1z"/>
	<path class="st5" d="M62.6,189.6c-0.7-0.4-1.5-0.5-2.3-0.3l0,0c-4.9,1.2-22.8,6-24.8,11.1c-2.3,5.9,11.9,82.7,13.7,84.8
		s30-1.4,30.9-4.7s-9.2-86.1-9.2-86.1L62.6,189.6z"/>
	<path class="st5" d="M40.3,241.9c0,0-1.6,0.1-3.2,3.6s1.2,32.2,3.3,35.1s8.3,3.5,8.3,3.5L40.3,241.9z"/>
	<path class="st3" d="M71.8,282c-0.1-0.1-0.1-0.1-0.1-0.2l-0.4-0.6c-0.3-0.5-0.8-1.3-1.3-2.4c-1.4-3-2.5-6.1-3.2-9.3
		c-1-4.8-1.8-9.6-2.2-14.5c-0.6-5.5-1.2-11.5-1.9-17.8c-1.4-12.6-2.5-24.1-2.7-32.4c-0.1-4.2,0-7.5,0.1-9.9c0.1-1.2,0.1-2.1,0.2-2.7
		c0-0.3,0-0.5,0.1-0.7c0-0.1,0-0.2,0-0.2c0,0.1,0,0.2,0,0.2c0,0.2,0,0.4,0,0.7c0,0.6,0,1.6-0.1,2.7c-0.1,2.3-0.1,5.7,0.1,9.9
		c0.3,8.3,1.5,19.8,2.8,32.4c0.7,6.3,1.3,12.3,1.9,17.8c0.4,4.9,1.1,9.7,2.1,14.5c0.7,3.2,1.7,6.3,3.1,9.3c0.5,1,0.9,1.9,1.2,2.4
		l0.3,0.6C71.7,282,71.8,282,71.8,282z"/>
	<path class="st3" d="M62.8,236.5c-1.1,0.3-2.2,0.5-3.3,0.6c-2.1,0.4-4.9,0.9-8,1.7s-5.9,1.6-7.9,2.3c-1.1,0.4-2.1,0.7-3.2,1
		c0.2-0.2,0.5-0.3,0.8-0.4c0.5-0.2,1.3-0.6,2.3-0.9c5.2-1.9,10.5-3.3,16-4c1-0.1,1.9-0.2,2.5-0.2C62.2,236.4,62.5,236.4,62.8,236.5z
		"/>
	<path class="st3" d="M39.9,238.7c0.1,0.1,0.1,0.3,0.1,0.5c0.1,0.4,0.2,0.8,0.2,1.4l0.8,5c0.7,4.2,1.7,10.1,3,16.5
		s2.6,12.2,3.6,16.4c0.5,2,0.9,3.7,1.2,5l0.3,1.4c0,0.2,0.1,0.3,0.1,0.5c-0.1-0.1-0.1-0.3-0.2-0.5l-0.4-1.3
		c-0.3-1.1-0.8-2.8-1.3-4.9c-1.1-4.2-2.4-9.9-3.7-16.4s-2.3-12.3-2.9-16.6c-0.3-2.1-0.5-3.9-0.7-5c-0.1-0.6-0.1-1-0.2-1.4
		C39.9,239,39.9,238.9,39.9,238.7z"/>
	<path class="st3" d="M60,204.1c0-0.7,0-1.4,0.2-2.1c0.5-3.4,1.4-6.7,2.6-9.9c0.2-0.7,0.5-1.3,0.9-1.9c0.1,0.1-1,3.1-2,7
		S60.2,204.1,60,204.1z"/>
	<path class="st3" d="M159.1,131.2c-0.2-2.9-0.5-17-0.7-19.1c-0.2-2.9-1.4-5.7-3.5-7.7c-2.1-2.1-5.3-2.7-8-1.6l0,0
		c-1.7,0.4-3.1,1.8-3.6,3.5c-5.9,21-5,43.5-7.6,65.2c7.7,1.3,18.1,0.8,25.9,0.3C161.7,154.5,160.2,150,159.1,131.2z"/>
	<path class="st5" d="M155.9,160.9c0-0.2-0.1-0.4-0.1-0.6c0-0.4-0.1-1-0.1-1.6c0-1.5-0.1-3.5-0.2-5.9c-0.1-5.1-0.2-12-0.4-19.6
		c-0.1-3.8-0.1-7.5-0.2-10.8c0-1.7,0-3.2-0.1-4.7c0-1.3-0.1-2.7-0.3-4c-0.2-2-1.3-3.7-3-4.8c-0.6-0.3-1.3-0.6-2-0.6c0,0,0,0,0.1,0
		c0.1,0,0.3,0,0.4,0c0.5,0.1,1.1,0.2,1.6,0.5c0.8,0.4,1.4,1,1.9,1.7c0.7,0.9,1.1,2,1.3,3.2c0.2,1.4,0.4,2.7,0.4,4.1
		c0,1.5,0.1,3.1,0.1,4.7c0.1,3.3,0.1,7,0.2,10.8c0.1,7.6,0.2,14.5,0.3,19.6c0,2.5,0,4.5,0,5.9c0,0.7,0,1.2,0,1.6
		C156,160.5,155.9,160.7,155.9,160.9z"/>
	<path class="st5" d="M148.9,152.9c-0.1-0.4-0.1-0.8-0.1-1.3c0-0.8-0.1-2-0.1-3.5c0-2.9,0.1-7,0.2-11.4s0.2-8.4,0.3-11.4
		c0-1.4,0.1-2.5,0.1-3.4c0-0.4,0-0.9,0.1-1.3c0.1,0.4,0.1,0.8,0.1,1.3c0,0.8,0,2,0,3.5c0,2.9-0.1,7-0.2,11.4s-0.2,8.4-0.3,11.4
		c-0.1,1.4-0.1,2.5-0.1,3.5C148.9,152,148.9,152.5,148.9,152.9z"/>
	<path class="st6" d="M97.9,158.3c-1,0-19.9,1.3-24.2,21.5s-5.6,48.5-5.6,48.5l20.5-2L97.9,158.3z"/>
	<path class="st6" d="M107.2,153.8l3.3-6.1l29-0.8l2,5.2l17.1,6.2l-1.4,75.7l12.7,69.9c0,0-0.1,10.1-33.8,13.3l-2.7-36.5l-16.8-0.4
		l0.5,35.7c0,0-29.7-0.5-39.2-7.2c0,0-2.9-34,5.3-58.5c7.1-21.4,9.9-27,9.9-27l0.6-64.3L107.2,153.8z"/>
	<g class="st8">
		<path d="M98.2,159.1C92.4,184.1,86.6,209,80.7,234l5.9,6.3c6.2-2.9,10.2-9.1,10.2-15.9c0-3.5-1.1-6.8-1.2-10.3
			c-0.3-7.8,4-14.9,6-22.5C104.4,180.9,102.4,169.4,98.2,159.1z"/>
	</g>
	<path class="st6" d="M154.9,157.3c7,1.3,12.4,8.7,14,16.6c0.9,4.6,3.6,27.1,3.6,27.1l1.5,8.2c0,0,1.2,28.2-4.7,31.4
		c-7,3.7-11-0.4-13.3-3.3s-4.8-22.2-4.8-22.2l2.6-46.1L154.9,157.3z"/>
	<path class="st3" d="M158.2,168.6c0,0.3,0,0.5-0.1,0.8c-0.1,0.6-0.2,1.3-0.3,2.3c-0.3,2-0.8,4.9-1.3,8.5s-1.3,7.9-2,12.6
		c-0.4,2.4-0.8,4.8-1.2,7.4s-0.9,5.2-1.2,8c-0.1,1.6-0.1,3.1,0,4.7l0,0c2.2,9.7,4.2,18.3,5.7,24.4c0.8,3,1.4,5.5,1.8,7.2
		c0.2,0.8,0.4,1.4,0.5,1.9c0.1,0.2,0.1,0.5,0.1,0.7c-0.1-0.2-0.2-0.4-0.2-0.7l-0.6-1.9c-0.5-1.7-1.2-4.1-2-7.2
		c-1.6-6.1-3.7-14.7-5.9-24.4l0,0c-0.1-1.6-0.1-3.2,0-4.8c0.2-2.8,0.7-5.4,1.2-8s0.9-5,1.2-7.4c0.8-4.7,1.5-9,2.1-12.6
		s1.1-6.4,1.5-8.4c0.2-0.9,0.3-1.7,0.4-2.3C158.1,169.3,158.1,168.9,158.2,168.6z"/>
	<path class="st5" d="M84,163l5.3,71c0,0,9.9-45.2,10.3-56.8c0.3-6.6-0.4-13.3-2-19.7C97.6,157.5,88,155.9,84,163z"/>
	<path class="st3" d="M80.9,158.5c0.7,0.2,1.3,0.5,1.8,1c0.6,0.5,1,1.1,1.3,1.8c0.3,0.9,0.5,1.7,0.5,2.6c0.2,1.9,0.2,3.6,0.2,4.8
		c0,0.7,0,1.3-0.1,2c-0.2-0.6-0.3-1.3-0.3-2c-0.1-1.2-0.1-2.9-0.3-4.8s-0.6-3.5-1.5-4.3S80.9,158.6,80.9,158.5z"/>
	<path class="st3" d="M117.7,161.1c0,0-0.2-0.2-0.6-0.6s-0.9-1-1.5-1.9h0.3c-0.7,2.1-1.8,5.1-3.1,8.5l-0.2,0.5l-0.3-0.4
		c-0.2-0.2-0.3-0.5-0.5-0.7c-0.8-1.5-1.5-3.1-2.1-4.7c-0.5-1.5-1-2.8-1.3-4s-0.7-2-0.9-2.6c-0.1-0.3-0.2-0.7-0.3-1
		c0.2,0.3,0.4,0.6,0.5,0.9c0.3,0.6,0.7,1.5,1.1,2.6s0.9,2.5,1.4,3.9c0.6,1.6,1.2,3.1,2.1,4.6c0.1,0.2,0.3,0.4,0.4,0.6l-0.4,0.1
		c1.3-3.4,2.4-6.4,3.2-8.5l0.1-0.3l0.2,0.2C116.5,159.2,117.2,160.1,117.7,161.1z"/>
	<path class="st3" d="M140.7,156.2c-0.1,0.3-0.2,0.6-0.4,0.9c-0.3,0.6-0.7,1.4-1.2,2.5s-1.1,2.3-1.9,3.7c-0.8,1.5-1.6,2.9-2.6,4.3
		l-0.3,0.4l-0.1-0.6l-0.1-0.2c-0.8-3.5-1.5-6.7-2-9l0.3,0.1c-0.7,0.7-1.5,1.3-2.3,1.8c-0.5,0.4-0.8,0.7-0.8,0.6s0.2-0.3,0.7-0.8
		c0.8-0.6,1.5-1.2,2.1-1.8l0.2-0.3l0.1,0.4c0.6,2.3,1.4,5.4,2.2,8.9v0.2l-0.5-0.1c1-1.4,1.8-2.8,2.6-4.2l1.9-3.6l1.3-2.4
		C140.3,156.7,140.5,156.4,140.7,156.2z"/>
	<path class="st4" d="M118.2,160.8c0,0-2.8,36.5-3.5,41.2s1.8,78.3,1.8,78.3l16.4,1.1c0,0,0.2-60.8,0-61.2s0.1-42.9,0.1-42.9
		l-3.7-16.9l-6.4,7.5L118.2,160.8z"/>
	<path class="st3" d="M136.6,195.5c0,0.1-0.6,0.2-0.9,1c-0.2,0.4-0.1,0.9,0.1,1.3c0.3,0.5,0.9,0.7,1.4,0.5c0.5-0.1,1-0.5,1.1-1
		c0.1-0.5-0.1-0.9-0.4-1.3c-0.3-0.3-0.7-0.5-1.2-0.6c0,0,0.1-0.1,0.4-0.1c0.4,0,0.7,0.2,1,0.5c0.4,0.4,0.7,1,0.6,1.6
		c-0.2,1-1.2,1.7-2.3,1.4c-0.5-0.1-0.9-0.4-1.2-0.8c-0.3-0.5-0.3-1.2,0-1.7c0.2-0.4,0.4-0.6,0.8-0.8
		C136.4,195.4,136.6,195.5,136.6,195.5z"/>
	<path class="st3" d="M136.6,227.4c0,0.1-0.6,0.2-0.9,1c-0.2,0.4-0.1,0.9,0.1,1.3c0.5,0.6,1.4,0.8,2,0.3c0.2-0.2,0.4-0.4,0.5-0.7
		c0.1-0.5-0.1-0.9-0.4-1.3c-0.6-0.6-1.2-0.5-1.2-0.6s0.1-0.1,0.4-0.1c0.4,0,0.7,0.2,1,0.5c0.4,0.4,0.7,1,0.6,1.6
		c-0.2,1-1.2,1.7-2.3,1.4c-0.5-0.1-0.9-0.4-1.2-0.8c-0.3-0.5-0.3-1.2,0-1.7c0.2-0.4,0.4-0.6,0.8-0.8
		C136.4,227.3,136.6,227.3,136.6,227.4z"/>
	<path class="st3" d="M138,265.9c0,0.1-0.6,0.2-0.9,1c-0.2,0.4-0.1,0.9,0.1,1.3c0.5,0.6,1.4,0.8,2,0.3c0.2-0.2,0.4-0.4,0.5-0.7
		c0.1-0.5-0.1-0.9-0.4-1.3c-0.6-0.6-1.2-0.5-1.2-0.6s0.1-0.1,0.4-0.1c0.4,0,0.7,0.2,1,0.5c0.4,0.4,0.7,1,0.6,1.6
		c-0.2,1-1.2,1.7-2.2,1.4c-0.5-0.1-0.9-0.4-1.2-0.8c-0.3-0.5-0.3-1.2,0-1.7c0.2-0.4,0.4-0.6,0.8-0.8
		C137.9,265.8,138,265.9,138,265.9z"/>
	<g class="st8">
		<path d="M159.3,195.2c-0.4-2.9-1.1-5.8-1.3-8.7c-0.2-3.5,0.4-7-0.3-10.5c-2.4,4-2.9,8.8-2.9,13.4s0.4,9.3-0.2,13.9
			c-0.4,3.1-1.5,6.9-1.9,10.1s0.5,4.9,1.4,9.6C157.3,214,160.5,204.6,159.3,195.2z"/>
	</g>
	<path class="st6" d="M153.8,187.8c3.8,10.9,2.3,23-4.1,32.7"/>
	<path class="st3" d="M149.7,220.5c-0.1-0.1,1-1.6,2.3-4.4c0.8-1.6,1.4-3.3,1.9-5c0.6-2.1,1.1-4.3,1.4-6.4c0.3-2.2,0.3-4.4,0.3-6.6
		c-0.1-1.8-0.3-3.6-0.6-5.4c-0.6-3-1.3-4.8-1.2-4.9c0.2,0.4,0.4,0.8,0.5,1.2c0.1,0.4,0.3,0.9,0.5,1.5s0.4,1.3,0.5,2
		c0.4,1.8,0.6,3.6,0.8,5.4c0.3,4.5-0.3,8.9-1.7,13.2c-0.6,1.7-1.3,3.4-2.1,5c-0.3,0.7-0.7,1.3-1,1.8c-0.3,0.5-0.5,0.9-0.9,1.3
		C150.3,219.7,150,220.1,149.7,220.5z"/>
	<path class="st3" d="M104.1,236c-0.7-0.4-1.3-1-1.9-1.6c-2.9-2.7-5.5-5.8-7.6-9.1c-0.5-0.7-0.9-1.4-1.2-2.2c0.6,0.6,1.1,1.3,1.5,2
		c0.9,1.2,2.1,2.9,3.6,4.7s2.9,3.3,4,4.4C103.1,234.8,103.6,235.4,104.1,236z"/>
	<path class="st3" d="M97.5,237.1c-0.4-0.6-0.8-1.2-1-1.9c-1.4-3.1-2.4-6.5-3-9.9c-0.2-0.7-0.2-1.4-0.2-2.1c0.2,0,0.7,3.2,1.9,7
		S97.7,237,97.5,237.1z"/>
	<path class="st3" d="M129.7,218c0,0.1-0.6-0.3-1.6-0.7c-2.6-1-5.6-0.8-8,0.6c-0.9,0.5-1.4,1-1.5,0.9c0.3-0.5,0.8-0.9,1.3-1.2
		c1.2-0.8,2.6-1.3,4.1-1.4c1.5-0.1,2.9,0.2,4.2,0.8C128.8,217.2,129.3,217.5,129.7,218z"/>
	<path class="st9" d="M74.2,215.6c0,0-7.3,8-6.8,13.6s3.2,17.9,10,17.5s13.1-11.4,14-20.2s0-29.4,0-29.4l-9.8,2.2L74.2,215.6z"/>
	<path class="st3" d="M59.6,164.4c5.1,6.5,17.7,22.1,17.7,22.1l11.8-3c0.9-0.2,1.5-0.9,1.6-1.8l0,0c0.1-0.6-0.1-1.1-0.4-1.6
		l-16.6-21c-1.3-1.6-3.4-2.2-5.4-1.5l-7.6,2.9c-1.3,0.5-2,2-1.5,3.3C59.3,164,59.4,164.2,59.6,164.4z"/>
	<path class="st5" d="M89.5,180.9c-0.4-0.3-0.8-0.7-1.1-1.1c-0.7-0.7-1.7-1.8-2.9-3.2c-2.4-2.7-5.7-6.6-9-11
		c-0.8-1.1-1.6-2.2-2.4-3.3c-0.6-1-1.5-1.9-2.5-2.6c-1-0.5-2.1-0.5-3.1,0l-2.8,1l-4.1,1.4c-0.5,0.2-1,0.3-1.5,0.4
		c0.5-0.2,1-0.4,1.5-0.6l4-1.5l2.8-1c0.5-0.2,1.1-0.3,1.7-0.4c0.6-0.1,1.3,0.1,1.8,0.4c1.1,0.7,2,1.7,2.7,2.8l2.4,3.3
		c3.3,4.4,6.5,8.3,8.8,11.1c1.1,1.3,2.1,2.4,2.8,3.3C88.8,180.1,89.1,180.5,89.5,180.9z"/>
	<path class="st4" d="M66.3,162.2c0.5-0.2,1.1,0,1.3,0.5c0.2,0.5,0,1.1-0.5,1.3c-0.5,0.2-1.1,0-1.3-0.5c0,0,0,0,0,0
		C65.6,163.1,65.8,162.5,66.3,162.2"/>
	<path class="st9" d="M76.5,176.4l-5.5,0.9l-2,1.8c-0.6,0.5-0.9,1.2-0.8,2c0.2,1,0.6,1.9,1.2,2.7c0.7,0.9,1.5,1.7,2.4,2.4
		c0,0-1.9,3.1,1.1,4.7c0,0-0.2,3.2,2.9,3.6c0,0,0.9,3.1,3.3,3.2l2.4,2.4l-0.7,1.5l10.9,0.3c0.1-2.9-0.1-5.8-0.4-8.7
		c-0.2-1.2-0.5-2.3-0.8-3.4c0.6-3.1-1.7-4.3-2.1-4.1c0,0,5.2-1.4,4.5-4.9l-5,1.3l-9.1,1.9l5.9-3.9c0.3-0.3,0.5-0.6,0.8-0.9
		c0.5-0.8,1.2-2.2,0.6-3.1c-0.3-0.4-7.5,2.7-7.5,2.7l-4.5,4.1l-1.4-2C72.6,180.8,77.2,179.9,76.5,176.4z"/>
	<path class="st10" d="M89,185.7c0,0.2-1.9,0.4-4.2,1.1s-4.1,1.5-4.2,1.3c1.2-0.9,2.6-1.5,4-1.8C86,185.8,87.5,185.6,89,185.7z"/>
	<path class="st10" d="M86.5,195.1c0.7-0.6,1.3-1.2,1.8-1.9l0.2-0.2l0.1,0.3c0.2,0.4,0.5,0.7,0.9,0.8c0.4,0.2,0.9,0.2,1.3-0.1
		c0.2-0.1,0.2-0.4,0.2-0.6l-0.2-0.9c-0.1-0.6-0.2-1.2-0.4-1.9c-0.2-0.5-0.7-0.9-1.2-0.9c-0.6,0-1.1,0.1-1.7,0.3l-2.9,0.7
		c-0.9,0.3-1.8,0.4-2.7,0.5c0.9-0.4,1.7-0.7,2.6-0.9l2.9-0.8c0.6-0.2,1.2-0.3,1.8-0.4c0.4,0,0.7,0.1,1,0.3c0.3,0.2,0.5,0.5,0.7,0.9
		c0.2,0.6,0.3,1.3,0.4,1.9c0,0.3,0.1,0.6,0.1,0.9c0.1,0.4-0.1,0.8-0.4,1c-0.5,0.4-1.2,0.4-1.8,0.1c-0.5-0.2-0.8-0.6-1-1.1h0.3
		c-0.4,0.5-0.9,1-1.5,1.4C86.7,195,86.5,195.1,86.5,195.1z"/>
	<path class="st10" d="M76.9,180c-0.7,1.1-1.5,2.2-2.4,3.2c-0.8,1.1-1.6,2.1-2.6,3.1c0.5-1.2,1.2-2.4,2.1-3.4
		C74.8,181.8,75.8,180.8,76.9,180z"/>
	<path class="st10" d="M79.1,183.8c0,0.1-1.1,0.5-2,1.7c-0.4,0.7-0.8,1.5-1,2.4c-0.1,0-0.2-0.3-0.2-0.8c0.1-1.4,1-2.6,2.3-3.1
		C78.8,183.7,79.1,183.7,79.1,183.8z"/>
	<path class="st3" d="M137.8,103.2c-0.8-2.2-0.5-4.7-0.8-7c-0.7-5.1-4.9-9.2-9.6-11.3c-4.4-1.9-9.9-1.5-15.2,0.3
		c-3.7,1.1-7,3.3-9.6,6.2c-3.3,4.1-4.4,9.4-3,14.5l26.3-3.8c2.5,2,5,4.1,8,5.2c0.9,0.4,1.8,0.5,2.7,0.4c0.9-0.1,1.7-0.8,2-1.7
		C138.8,105.1,138.2,104.2,137.8,103.2z"/>
	<path class="st3" d="M121.5,83.6c5.8-1,10.8,1.2,15.6,4.5c4.8,3.3,8.5,8.1,10.6,13.6c2.2,5.7,2.8,14,1,19.9
		c-1.5,5.6-5.8,10.2-11.3,12.1c-7.9,2.8-17,2.4-23.7-2.6s-10.5-13.4-10.8-21.8c-0.3-5.8,1.2-11.6,4.4-16.5
		C110.6,88,115.7,84.6,121.5,83.6"/>
	<path class="st9" d="M112.3,146.2l0.2,4.7l10.3,18.2l15-19.2l0.5-48c0-2.2-1.8-4-4-4.2l-22.9-4.9c-7.3-0.5-11.8,8.6-12,16
		c-0.2,8.1-0.1,18.1,1,24.1C102.9,145,112.2,146.2,112.3,146.2"/>
	<path class="st3" d="M102.8,118.9c0,0.8,0.7,1.5,1.6,1.5c0.8,0,1.5-0.6,1.6-1.4c0,0,0,0,0,0c0-0.8-0.7-1.5-1.6-1.5
		C103.6,117.4,102.9,118,102.8,118.9C102.8,118.9,102.8,118.9,102.8,118.9z"/>
	<path class="st3" d="M101.9,113.5c0.2,0.2,1.3-0.7,3-0.8s2.9,0.7,3.1,0.5s-0.1-0.4-0.7-0.8c-0.7-0.5-1.6-0.7-2.5-0.7
		c-0.9,0-1.7,0.3-2.4,0.9C101.9,113,101.8,113.4,101.9,113.5z"/>
	<path class="st3" d="M118.1,118.6c0,0.8,0.7,1.5,1.6,1.5c0.8,0,1.5-0.6,1.5-1.4c0,0,0,0,0,0c0-0.8-0.7-1.5-1.6-1.5
		C118.8,117.1,118.1,117.7,118.1,118.6C118.1,118.6,118.1,118.6,118.1,118.6z"/>
	<path class="st3" d="M117.8,113.1c0.2,0.2,1.3-0.7,3-0.8s3,0.7,3.1,0.5s-0.1-0.4-0.7-0.8c-0.7-0.5-1.6-0.7-2.5-0.7
		c-0.9,0-1.7,0.3-2.4,0.9C117.9,112.7,117.7,113,117.8,113.1z"/>
	<path class="st3" d="M112.8,125.9c-0.9-0.2-1.8-0.4-2.7-0.4c-0.4,0-0.8-0.1-0.9-0.4c-0.1-0.4,0-0.9,0.2-1.3l1.1-3.3
		c1.6-4.7,2.7-8.6,2.5-8.6s-1.6,3.7-3.2,8.4l-1.1,3.3c-0.2,0.5-0.3,1.1-0.2,1.7c0.1,0.3,0.4,0.5,0.7,0.6c0.2,0.1,0.5,0.1,0.7,0.1
		C110.9,126.1,111.8,126,112.8,125.9z"/>
	<path class="st10" d="M112.3,146.2c5.7-0.4,11.3-2.2,16.1-5.4c0,0-3.8,8.6-16,7.9L112.3,146.2z"/>
	<path class="st10" d="M114.1,129.5c0.6-0.7,1.5-1,2.4-0.8c0.6,0.1,1.2,0.4,1.6,1c0.5,0.7,0.5,1.6,0.2,2.3c-0.5,0.6-1.4,0.9-2.2,0.6
		c-0.7-0.2-1.4-0.5-2-0.9c-0.2-0.2-0.3-0.4-0.4-0.7C113.6,130.4,113.7,129.9,114.1,129.5"/>
	<path class="st3" d="M117.9,109.2c0.2,0.4,1.8,0.2,3.8,0.3s3.6,0.6,3.8,0.2c0.1-0.2-0.2-0.6-0.8-1c-0.9-0.5-1.9-0.8-2.9-0.9
		c-1-0.1-2.1,0.1-3,0.5C118.2,108.6,117.8,109,117.9,109.2z"/>
	<path class="st3" d="M102.1,106.1c0.3,0.4,1.4-0.1,2.8-0.1s2.6,0.2,2.8-0.2c0.1-0.2-0.1-0.6-0.6-0.9c-1.4-0.8-3.3-0.7-4.6,0.3
		C102.1,105.6,102,106,102.1,106.1z"/>
	<path class="st3" d="M142,99.7c-2.4-7-12.7-16.5-20.1-15.9l-11.6,7.3c0.9,4.1,3.9,7.3,7.8,8.5c2.1,0.6,4.6,0.7,5.9,2.5
		s0.6,4.5,1.8,6.3c1.7,2.6,6.1,2.4,7.4,5.2c0.6,1.2,0.3,2.7,0.9,3.9c0.8,1.6,4.9,3.6,6.6,3s1.6-3.5,2.2-5c0.7-1.7,0.7-3.6,0.1-5.4
		C142.3,106.7,143.1,103,142,99.7z"/>
	<path class="st9" d="M135.7,122.1c0-0.9,0.9-3.1,1.8-3.3c2.4-0.5,6.7-0.4,7,5.6c0.4,8.3-8,6.9-8.1,6.7S135.9,125.2,135.7,122.1z"/>
	<path class="st10" d="M138.9,127.9c0,0,0.1,0.1,0.4,0.2c0.3,0.1,0.7,0.1,1.1,0c0.9-0.4,1.5-1.8,1.5-3.3c0-0.7-0.2-1.4-0.5-2.1
		c-0.2-0.5-0.6-0.9-1.1-1.1c-0.3-0.1-0.7,0.1-0.8,0.4c-0.1,0.2,0,0.4-0.1,0.4s-0.2-0.1-0.1-0.5c0-0.2,0.1-0.4,0.3-0.5
		c0.2-0.2,0.5-0.3,0.8-0.2c0.7,0.1,1.3,0.6,1.6,1.2c0.4,0.7,0.6,1.5,0.6,2.3c0,1.7-0.8,3.3-2,3.7c-0.4,0.2-0.9,0.1-1.3-0.2
		C138.9,128.1,138.8,127.9,138.9,127.9z"/>
	<path class="st11" d="M149.5,110.7c0.3-0.8,0.4-1.6,0.3-2.5c0-4.1-1.3-8.1-3.8-11.3c-0.5-0.7-1.1-1.3-1.8-1.8
		c-0.2,0.1,2.6,2.9,4.1,7.3C149.2,105.1,149.6,107.9,149.5,110.7z"/>
	<path class="st3" d="M112.7,88.6c-0.8,3.4-5.9,7.7-8.2,10.3c-4.3,5-5.1,5.7-5.1,20.8c-2.2-4.7-3.4-9.8-3.4-15
		c0.1-4.4,1.8-8.6,4.8-11.9C103.9,89.7,108.3,88.1,112.7,88.6"/>
	<path class="st5" d="M146.2,99.6c-0.5,0.2-0.9,0.3-1.4,0.3c-0.5,0.1-1,0.2-1.7,0.3s-1.4,0.2-2.2,0.3c-2,0.1-3.9,0.1-5.9,0
		c-2.4-0.2-4.8-0.5-7.1-1.1c-2.3-0.6-4.6-1.4-6.8-2.3c-1.8-0.8-3.5-1.7-5.2-2.8c-0.7-0.4-1.3-0.9-1.9-1.3c-0.5-0.3-0.9-0.6-1.4-1
		c-0.4-0.3-0.8-0.6-1.1-1c0.4,0.2,0.8,0.5,1.2,0.8c0.4,0.3,0.8,0.6,1.4,1s1.2,0.8,1.9,1.2c1.7,1,3.4,1.9,5.2,2.6
		c2.2,0.9,4.4,1.7,6.7,2.3c2.3,0.5,4.6,0.9,7,1.1c1.9,0.1,3.9,0.2,5.8,0.1c0.8,0,1.6-0.1,2.2-0.2s1.2-0.1,1.7-0.2
		C145.2,99.7,145.7,99.6,146.2,99.6z"/>
	<path class="st5" d="M147.1,105.5c-0.3,0.1-0.7,0.2-1,0.2c-0.9,0.2-1.8,0.3-2.7,0.3c-6,0.4-11.9-0.7-17.3-3.4
		c-0.8-0.4-1.6-0.8-2.3-1.3c-0.3-0.2-0.6-0.4-0.8-0.6c0-0.1,1.2,0.7,3.3,1.6c5.4,2.5,11.2,3.6,17.1,3.4
		C145.7,105.7,147.1,105.4,147.1,105.5z"/>
	<path class="st5" d="M149.2,105.7c0.1,0.4,0.2,0.8,0.3,1.2c0.1,0.8,0.3,2,0.3,3.5c0.1,1.7,0.1,3.4,0,5.2c-0.1,2.1-0.4,4.2-0.9,6.3
		c-1,3.8-3.3,7.1-6.4,9.4c-1,0.7-2,1.2-3.1,1.6c-0.4,0.2-0.8,0.3-1.2,0.4c0.4-0.2,0.7-0.4,1.1-0.6c1-0.5,2-1.1,2.9-1.8
		c1.4-1,2.6-2.2,3.5-3.6c1.2-1.7,2.1-3.6,2.6-5.6c0.5-2,0.8-4.1,0.9-6.2c0.1-1.9,0.1-3.7,0.1-5.1s-0.1-2.6-0.2-3.4
		C149.2,106.6,149.2,106.1,149.2,105.7z"/>
	<path class="st3" d="M116.1,132.6c0.4,0,0.9-0.1,1.3-0.3c0.4-0.2,0.7-0.6,0.7-1.1c0.1-0.6-0.1-1.1-0.4-1.6
		c-0.4-0.4-0.9-0.7-1.5-0.7c-0.5,0-1,0.1-1.4,0.3c-0.7,0.4-1,0.9-1.1,0.8s0.2-0.6,0.9-1.1c0.5-0.3,1-0.5,1.6-0.5
		c0.7,0,1.4,0.3,1.9,0.9c0.5,0.5,0.7,1.3,0.5,2c-0.1,0.6-0.5,1.1-1,1.3C116.7,133,116.1,132.6,116.1,132.6z"/>
	<path class="st9" d="M167.3,200.9l4.5-9.5c0.7-3,3.8-4,7.5-4.2l3.9-1.6c0,0,2.9-4.1,5.5-4c0.4,0,0.8,0.3,0.9,0.7l0,0
		c0.1,0.3,0,0.6-0.1,0.8l-3.2,4.9l-2.6,1.3c0,0,2.4,0.6,3.4-0.3s4.2-3.4,4.2-3.4s2.4-4.4,5.6-4.1c0.3,0,0.6,0.3,0.5,0.6
		c0,0.1,0,0.2-0.1,0.2l-2.4,4.7c0,0,4.4-6.7,8.7-4.2l-4.7,5.1c0,0,6.8-3.9,9.5-0.6l-17.3,7.1l-9.9,1.9l-3.5,9.4l-3.1-1.8
		L167.3,200.9z"/>
	<path class="st9" d="M177.6,213.2c0,0,0.5,16.9-2.6,21.6s-8.9,11-16.1,5.9l-4.5-17c0,0,7.3-8,8.6-11.3c3.3-8.2,8.7-21,8.7-21
		l9.5,4.2L177.6,213.2z"/>
	<path class="st10" d="M164.1,210.8c-0.3,0.7-0.7,1.5-1.1,2.1c-0.7,1.3-1.6,3.1-2.6,5.1s-1.7,3.9-2.2,5.3c-0.2,0.8-0.5,1.5-0.9,2.2
		c0.1-0.8,0.3-1.6,0.6-2.3c0.6-1.8,1.3-3.6,2.1-5.4c0.8-1.8,1.7-3.5,2.7-5.1C163.1,212.1,163.6,211.4,164.1,210.8z"/>
	<path class="st10" d="M186.2,187.9c-0.7,0.6-1.5,1.1-2.3,1.4c-0.8,0.5-1.6,0.8-2.5,0.9c0.7-0.6,1.5-1.1,2.3-1.4
		C184.4,188.4,185.3,188,186.2,187.9z"/>
	<path class="st10" d="M187.6,192.4c0-0.1,0.4-0.4,1.3-0.7l1.4-0.6l0.8-0.4c0.3-0.1,0.5-0.3,0.7-0.5c0.9-1,1.6-2,2.1-2.7
		s1-1.1,1.1-1c-0.1,0.1-0.1,0.2-0.2,0.3l-0.6,0.9c-0.6,1-1.3,1.9-2.1,2.8c-0.1,0.1-0.3,0.3-0.4,0.4c-0.2,0.1-0.3,0.2-0.5,0.2
		l-0.9,0.3c-0.6,0.2-1.1,0.4-1.5,0.5C188.6,192.2,188.1,192.3,187.6,192.4z"/>
</g>
</svg>
